<?xml version="1.0" encoding="utf-8"?>
<!-- Generator: Adobe Illustrator 27.5.0, SVG Export Plug-In . SVG Version: 6.00 Build 0)  -->
<svg version="1.1" xmlns="http://www.w3.org/2000/svg" xmlns:xlink="http://www.w3.org/1999/xlink" x="0px" y="0px"
	 viewBox="0 0 500 500" style="enable-background:new 0 0 500 500;" xml:space="preserve">
<g id="BACKGROUND">
</g>
<g id="OBJECTS">
	<g>
		<g>
			<path style="opacity:0.18;fill:#63CFE8;" d="M174.588,231.034c23.292-3.546,41.139-23.66,41.139-47.943
				c0-14.995-6.808-28.397-17.498-37.293c4.531-7.376,7.149-16.055,7.149-25.347c0-26.785-21.714-48.499-48.499-48.499
				c-26.489,0-48.004,21.24-48.476,47.616c-3.017-0.489-6.11-0.754-9.265-0.754c-31.737,0-57.465,25.728-57.465,57.465
				c0,25.646,16.804,47.361,40,54.754H174.588z"/>
			<g>
				<g>
					<path style="opacity:0.24;fill:#155897;" d="M220.876,242.515h-9.643c0.885-0.586,1.473-1.589,1.473-2.723
						c0-0.839-0.329-1.599-0.853-2.179h6.3c1.797,0,3.268-1.471,3.268-3.268c0-1.798-1.471-3.268-3.268-3.268H69.452
						c-1.797,0-3.268,1.471-3.268,3.268c0,0.839,0.329,1.599,0.853,2.179h-6.3c-1.797,0-3.268,1.471-3.268,3.268
						s1.471,3.268,3.268,3.268h9.643c-0.885,0.586-1.473,1.589-1.473,2.724c0,1.798,1.471,3.268,3.268,3.268h148.701
						c1.797,0,3.268-1.471,3.268-3.268S222.674,242.515,220.876,242.515z"/>
				</g>
				<g style="opacity:0.34;">
					<path style="fill:#223147;" d="M211.853,236.653H67.037c-0.071,0-0.129-0.058-0.129-0.129s0.058-0.129,0.129-0.129h144.815
						c0.071,0,0.129,0.058,0.129,0.129S211.924,236.653,211.853,236.653z"/>
				</g>
				<g style="opacity:0.34;">
					<path style="fill:#223147;" d="M211.233,242.644H70.38c-0.071,0-0.129-0.058-0.129-0.129c0-0.071,0.058-0.129,0.129-0.129
						h140.853c0.071,0,0.129,0.058,0.129,0.129C211.362,242.586,211.304,242.644,211.233,242.644z"/>
				</g>
			</g>
		</g>
		<g>
			<path style="fill:#F49231;" d="M86.902,238.774l0.114,0.039c0.917,0.317,1.926-0.174,2.243-1.091l26.136-75.621
				c0.317-0.917-0.174-1.926-1.091-2.243l-0.114-0.039c-0.917-0.317-1.926,0.174-2.243,1.091l-26.136,75.62
				C85.495,237.448,85.985,238.457,86.902,238.774z"/>
			<ellipse style="fill:#F49231;" cx="120.925" cy="165.549" rx="19.439" ry="3.829"/>
			<path style="fill:#F7F8F9;" d="M140.364,162.604c0,2.115-8.703,3.829-19.439,3.829c-10.736,0-19.439-1.714-19.439-3.829
				c0-2.115,8.703-3.829,19.439-3.829C131.66,158.775,140.364,160.489,140.364,162.604z"/>
			<path style="fill:#F49231;" d="M120.983,244.777h-0.117c-0.94,0-1.709-0.769-1.709-1.709v-79.639c0-0.94,0.769-1.709,1.709-1.709
				h0.117c0.94,0,1.709,0.769,1.709,1.709v79.639C122.692,244.008,121.923,244.777,120.983,244.777z"/>
			<path style="fill:#F49231;" d="M157.306,238.774l-0.114,0.039c-0.917,0.317-1.926-0.174-2.243-1.091l-26.136-75.621
				c-0.317-0.917,0.174-1.926,1.091-2.243l0.114-0.039c0.917-0.317,1.926,0.174,2.243,1.091l26.136,75.62
				C158.714,237.448,158.223,238.457,157.306,238.774z"/>
			<path style="fill:#F49231;" d="M143.652,217.664H98.197c-0.783,0-1.424-0.641-1.424-1.424v-0.097
				c0-0.783,0.641-1.424,1.424-1.424h45.455c0.783,0,1.424,0.641,1.424,1.424v0.097
				C145.076,217.023,144.435,217.664,143.652,217.664z"/>
		</g>
		<g>
			<path style="fill:#FD6C6B;" d="M116.437,64.531c0,0-6.552,19.907-9.827,24.443c-3.276,4.536-22.175,25.703-4.788,35.53
				c17.387,9.828,46.366,2.772,42.082-21.419c-4.284-24.191,0-35.782,0-35.782S124.501,51.428,116.437,64.531z"/>
			<path style="opacity:0.26;fill:#223147;" d="M138.824,77.852c0.145-1.692,1.686-5.639,0.903-7.233
				c-0.341-0.695-3.729-1.501-5.012-1.895c-2.927-0.9-5.744-1.78-8.446-2.864c-2.738,6.282-5.455,12.614-9.109,18.459
				c-3.093,4.948-7.437,9.063-10.266,14.146c-2.976,5.346-5.599,14.539,0.683,18.677c9.489,6.25,22.81,0.243,28.985-7.516
				C144.194,100.036,137.893,88.696,138.824,77.852z"/>
			<path style="fill:#FFFFFF;" d="M139.741,129.02c-0.474-8.919-0.768-17.841-1.582-26.736l-4.998-1.856
				c-2.438,0.977-4.242,0.874-5.876,0.971c-1.614-0.268-4.711-0.078-7.033-1.306l-6.739,1.766
				c-0.105,9.586,1.395,19.222-0.612,28.696c-1.238,5.844-5.282,13.878-3.782,20.07c0.504,0.106,0.785,0.172,0.48,0.133
				c0.619,0.101,1.238,0.207,1.859,0.296c5.771,0.824,11.608,1.156,17.435,0.937c0.981-0.037,4.862-0.491,0.496,0.04
				c1.376-0.167,2.754-0.302,4.127-0.493c2.808-0.391,5.597-0.898,8.368-1.501c0.186-0.04,0.369-0.089,0.555-0.132
				C142.267,142.95,140.11,135.964,139.741,129.02z"/>
			<path style="fill:none;stroke:#000000;stroke-miterlimit:10;" d="M105.453,149.877c0,0-3.729,15.195,18.922,14.376
				c0,0,20.548-2.208,18.285-21.043C142.661,143.21,110.557,141.92,105.453,149.877z"/>
			<path style="fill:#223147;" d="M141.673,102.99c0,0,5.92,1.293,7.115,8.736c1.195,7.443,6.174,25.903,3.805,27.442
				c-2.37,1.539-10.902,2.093-12.758-20.686C139.836,118.482,135.486,105.644,141.673,102.99z"/>
			<path style="fill:#223147;" d="M147.861,139.669c0,0,19.572,2.839,36.121-1.042l1.036-6.359l-33.295-2.994
				C151.724,129.274,144.388,134.484,147.861,139.669z"/>
			<path style="fill:#F9B88C;" d="M132.81,90.848l0.145,9.99c0,0-7.29,5.874-12.379-1.341l1.521-9.452L132.81,90.848z"/>
			<path style="opacity:0.26;fill:#FD6C6B;" d="M127.013,103.085c3.252-0.085,5.942-2.248,5.942-2.248l-0.145-9.99l-5.234-0.393
				C127.112,94.641,127.285,98.898,127.013,103.085z"/>
			<path style="fill:#F9B88C;" d="M131.678,96.058l0.878,0.046c7.056,0.372,13.134-5.098,13.505-12.154l0.734-13.939
				c0.372-7.056-5.098-13.134-12.154-13.505l-0.878-0.046c-7.056-0.371-13.134,5.098-13.505,12.154l-0.734,13.939
				C119.152,89.609,124.622,95.686,131.678,96.058z"/>
			<path style="fill:#155897;" d="M142.512,142.376c0,0,34.838,12.087,33.346,19.28c0,0,0.283,6.983-6.815,7.82
				s-42.353-12.821-42.353-12.821S134.117,136.35,142.512,142.376z"/>
			<path style="fill:#155897;" d="M126.336,146.298c0,0,34.838,12.087,33.346,19.279c0,0,0.283,6.984-6.815,7.82
				c-7.098,0.836-42.353-12.821-42.353-12.821S117.941,140.271,126.336,146.298z"/>
			<path style="fill:#155897;" d="M175.985,162.535c0,0,3.316,7.357-27.292,48.438l-7.074-2.472c0,0,14.03-47.764,23.824-49.924
				C175.236,156.417,176.082,160.411,175.985,162.535z"/>
			<path style="fill:#F9B88C;" d="M141.617,208.509c0,0-4.609,7.194-1.928,8.984c2.681,1.79,20.738,7.256,20.738,7.256
				s2.819-4.513-3.08-6.126c-5.9-1.613-7.997-7.471-7.997-7.471L141.617,208.509z"/>
			<path style="fill:#223147;" d="M134.937,100.942c0,0,4.916,50.002,6.387,52.453c1.471,2.451,9.804,0,9.804,0l-7.828-49.941
				L134.937,100.942z"/>
			<path style="fill:#223147;" d="M120.252,100.093c0,0,7.346,49.38,3.424,66.047c0,0-17.157,2.451-22.059-10.784
				c0,0,4.412-12.255,4.412-15.686c0-3.431,3.282-37.847,3.282-37.847S116.337,98.261,120.252,100.093z"/>
			<path style="fill:#223147;" d="M109.949,101.649c0,0,5.944,1.18,7.281,8.599c1.337,7.419,6.668,25.781,4.328,27.364
				c-2.34,1.584-7.391-0.633-13.15-20.439C108.408,117.173,103.814,104.42,109.949,101.649z"/>
			<path style="fill:#FD6C6B;" d="M140.921,55.548c-0.269-0.181-0.997-0.514-0.997-0.514c-0.419-0.125,0.027-0.017-0.378-0.119
				c-17.531-7.188-23.797,11.487-23.797,11.487l0.77,6.157c2.772-2.52,7.312,4.233,7.312,4.233c7.5-2.12,12.488-8.62,15.078-12.946
				c1.329,2.238,4.745,7.32,8.477,7.516C147.385,71.362,149.548,60.279,140.921,55.548z"/>
			<path style="fill:#63CFE8;" d="M159.433,210.085c-1.703-0.756-3.475-1.044-5.153-0.935l-4.34,9.772l-13.54-6.013
				c-0.87-0.387-1.899,0.009-2.286,0.88c-0.387,0.87,0.009,1.899,0.88,2.285l23.212,10.309c0.459,0.204,0.96,0.185,1.39-0.001
				l0.175,0.078c2.308-0.693,4.232-2.227,5.213-4.435C166.924,217.654,164.439,212.308,159.433,210.085z"/>
			<path style="opacity:0.52;fill:#FFFFFF;" d="M159.433,210.085c-1.2-0.533-2.433-0.821-3.645-0.914
				c4.073,4.234,5.706,10.223,5.683,16.583c1.537-0.828,2.785-2.092,3.512-3.73C166.924,217.653,164.439,212.308,159.433,210.085z"
				/>
			<path style="fill:#155897;" d="M159.985,164.128c0,0,3.054,7.035-26.122,46.316l-6.635-2.364c0,0,13.635-45.672,22.871-47.736
				C159.335,158.279,160.094,162.098,159.985,164.128z"/>
			<path style="fill:#F9B88C;" d="M127.232,208.067c0,0-4.644,7.172-1.971,8.975c2.672,1.803,20.703,7.355,20.703,7.355
				s2.841-4.5-3.051-6.141c-5.892-1.641-9.049-7.812-9.049-7.812L127.232,208.067z"/>
			<path style="fill:#63CFE8;" d="M144.248,211.893c-1.703-0.756-3.475-1.044-5.153-0.936l-4.34,9.773l-13.54-6.013
				c-0.87-0.387-1.899,0.009-2.285,0.88c-0.387,0.87,0.009,1.899,0.88,2.285l23.212,10.309c0.459,0.204,0.96,0.185,1.39-0.001
				l0.175,0.078c2.308-0.693,4.232-2.227,5.213-4.435C151.74,219.461,149.254,214.116,144.248,211.893z"/>
			<path style="opacity:0.52;fill:#FFFFFF;" d="M144.248,211.893c-0.831-0.369-1.679-0.623-2.525-0.777
				c4.385,4.15,5.9,10.034,5.404,15.924c1.149-0.804,2.083-1.881,2.672-3.208C151.74,219.461,149.254,214.116,144.248,211.893z"/>
			<g style="opacity:0.7;">
				<path style="fill:#223147;" d="M147.064,191.546c-0.054,0-0.107-0.016-0.153-0.05c-0.115-0.084-0.14-0.247-0.056-0.362
					c0.184-0.251,18.412-25.111,19.855-27.378c1.304-2.05,2.113-5.964-0.174-8.251c-0.101-0.101-0.101-0.265,0-0.366
					s0.265-0.101,0.366,0c2.489,2.489,1.641,6.7,0.244,8.895c-1.452,2.281-19.123,26.381-19.874,27.406
					C147.222,191.509,147.144,191.546,147.064,191.546z"/>
			</g>
			<g style="opacity:0.7;">
				<path style="fill:#223147;" d="M141.628,171.472c-0.07,0-0.139-0.028-0.19-0.083c-0.097-0.105-0.09-0.268,0.015-0.365
					c0.112-0.104,2.768-2.546,5.07-3.801c0.125-0.068,0.283-0.023,0.35,0.104c0.069,0.125,0.022,0.282-0.103,0.351
					c-2.246,1.225-4.94,3.702-4.967,3.726C141.754,171.449,141.69,171.472,141.628,171.472z"/>
			</g>
			<g style="opacity:0.7;">
				<path style="fill:#223147;" d="M135.146,208.692c-0.029,0-0.058-0.005-0.086-0.015l-7.11-2.509
					c-0.135-0.047-0.205-0.195-0.158-0.33c0.048-0.135,0.197-0.204,0.33-0.158l7.11,2.509c0.135,0.048,0.206,0.195,0.158,0.33
					C135.352,208.626,135.252,208.692,135.146,208.692z"/>
			</g>
			<g style="opacity:0.7;">
				<path style="fill:#223147;" d="M149.783,209.11c-0.027,0-0.054-0.004-0.082-0.013l-7.528-2.509
					c-0.135-0.045-0.209-0.192-0.164-0.327c0.046-0.135,0.192-0.208,0.327-0.164l7.528,2.509c0.135,0.046,0.209,0.192,0.164,0.327
					C149.992,209.041,149.891,209.11,149.783,209.11z"/>
			</g>
			<g style="opacity:0.47;">
				<path style="fill:#223147;" d="M127.739,104.858c-4.095,0-7.625-2.451-7.681-2.49l0.299-0.422
					c0.353,0.25,8.72,6.045,14.376-1.162l0.407,0.319C132.895,103.963,130.213,104.858,127.739,104.858z"/>
			</g>
			<g style="opacity:0.41;">
				<g>
					<path style="fill:#63CFE8;" d="M122.978,140.184c-0.027,0-0.055-0.004-0.082-0.013c-0.246-0.082-6.038-2.014-7.541-2.619
						c-1.557-0.627-5.06-14.472-5.746-17.242c-0.034-0.138,0.05-0.279,0.189-0.313c0.137-0.037,0.278,0.05,0.313,0.189
						c1.962,7.915,4.534,16.522,5.437,16.886c1.489,0.599,7.452,2.588,7.512,2.608c0.135,0.046,0.209,0.192,0.164,0.327
						C123.187,140.115,123.086,140.184,122.978,140.184z"/>
				</g>
				<g>
					<path style="fill:#63CFE8;" d="M120.063,130.71c-0.078,0-0.156-0.036-0.207-0.104c-0.085-0.114-0.062-0.276,0.052-0.362
						c0.232-0.175,2.305-1.703,3.477-1.506c0.141,0.023,0.236,0.156,0.213,0.297c-0.024,0.14-0.159,0.237-0.297,0.213
						c-0.814-0.136-2.499,0.972-3.082,1.41C120.171,130.693,120.117,130.71,120.063,130.71z"/>
				</g>
				<g>
					<path style="fill:#63CFE8;" d="M145.933,135.993c-0.122,0-0.23-0.086-0.253-0.211c-0.053-0.278-1.28-6.823-0.724-8.861
						c1.227-4.494,1.01-5.911,0.614-6.308c-0.928-0.928-2.935-7.059-3.161-7.755c-0.044-0.136,0.03-0.282,0.166-0.326
						c0.139-0.044,0.282,0.031,0.326,0.166c0.603,1.858,2.323,6.838,3.034,7.549c0.748,0.749,0.6,2.849-0.48,6.81
						c-0.525,1.924,0.721,8.563,0.733,8.629c0.027,0.14-0.066,0.276-0.206,0.302C145.966,135.992,145.949,135.993,145.933,135.993z"
						/>
				</g>
				<g>
					<path style="fill:#63CFE8;" d="M150.489,131.439c-0.077,0-0.154-0.035-0.205-0.101c-0.087-0.113-0.066-0.275,0.048-0.363
						l2.368-1.822c0.113-0.086,0.275-0.066,0.363,0.047c0.087,0.113,0.066,0.275-0.048,0.363l-2.368,1.822
						C150.599,131.421,150.544,131.439,150.489,131.439z"/>
				</g>
				<g>
					<path style="fill:#63CFE8;" d="M120.607,164.864c-11.897,0-18.549-10.657-18.621-10.775c-0.074-0.122-0.036-0.281,0.086-0.355
						c0.122-0.075,0.28-0.036,0.356,0.086c0.078,0.128,7.978,12.761,21.9,10.179c0.136-0.027,0.275,0.066,0.301,0.207
						c0.026,0.14-0.067,0.275-0.207,0.301C123.097,164.753,121.824,164.864,120.607,164.864z"/>
				</g>
				<g>
					<path style="fill:#63CFE8;" d="M114.019,157.994c-0.416,0-0.848-0.047-1.298-0.143c-0.103-0.034-1.744-0.639-2.391-2.5
						c-0.64-1.84-0.075-4.195,1.679-7l0.107-0.172l7.676,2.495l-0.019,0.206c-0.016,0.176-0.422,4.336-2.976,6.22
						C115.991,157.695,115.06,157.994,114.019,157.994z M112.341,148.797c-1.581,2.585-2.094,4.729-1.526,6.376
						c0.561,1.626,2.032,2.176,2.046,2.182c1.392,0.293,2.623,0.071,3.627-0.67c2.061-1.519,2.629-4.799,2.744-5.648
						L112.341,148.797z"/>
				</g>
			</g>
			<g style="opacity:0.51;">
				<polygon style="fill:#223147;" points="141.615,211.444 141.144,211.23 135.747,223.104 118.941,215.967 118.739,216.443 
					145.065,227.622 145.267,227.147 136.223,223.306 				"/>
				
					<rect x="155.275" y="217.966" transform="matrix(0.3748 -0.9271 0.9271 0.3748 -109.9725 283.9465)" style="fill:#223147;" width="0.517" height="11.083"/>
				
					<rect x="148.186" y="215.586" transform="matrix(0.4141 -0.9102 0.9102 0.4141 -105.8173 267.2942)" style="fill:#223147;" width="13.072" height="0.517"/>
			</g>
			<path style="fill:#223147;" d="M137.643,77.702c-0.144,0.837-0.691,1.441-1.221,1.35c-0.53-0.091-0.842-0.844-0.698-1.68
				c0.144-0.837,0.691-1.441,1.221-1.35C137.474,76.113,137.787,76.865,137.643,77.702z"/>
			<path style="fill:#223147;" d="M145.98,77.507c-0.091,0.896-0.522,1.587-0.963,1.542s-0.724-0.808-0.633-1.704
				c0.091-0.896,0.522-1.587,0.963-1.542S146.071,76.61,145.98,77.507z"/>
			<path style="fill:#F9B88C;" d="M116.176,77.381c-0.149,2.833,1.262,5.211,3.151,5.31c1.889,0.099,3.542-2.117,3.691-4.95
				c0.149-2.833-1.262-5.211-3.151-5.31C117.978,72.332,116.326,74.548,116.176,77.381z"/>
			<path style="opacity:0.26;fill:#FD6C6B;" d="M117.685,77.461c-0.083,1.584,0.705,2.912,1.761,2.968
				c1.056,0.056,1.98-1.183,2.063-2.767c0.083-1.584-0.705-2.912-1.761-2.968C118.692,74.639,117.769,75.877,117.685,77.461z"/>
			<path style="fill:#FD6C6B;" d="M122.381,64.377c0,0,1.152,5.304-2.834,17.736c-3.986,12.432-3.108,33.279,1.858,39.527
				c0,0-0.224-31.744,2.708-38.511C127.045,76.364,128.314,68.475,122.381,64.377z"/>
			<path style="fill:#FFFFFF;" d="M120.358,83.406c0,0.899-0.809,1.627-1.808,1.627c-0.998,0-1.808-0.728-1.808-1.627
				c0-0.899,0.809-1.627,1.808-1.627C119.549,81.779,120.358,82.508,120.358,83.406z"/>
			<path style="fill:#FD6C6B;" d="M138.071,73.324c0,0-2.28-0.533-5.093,1.215c0,0-0.077,0.742,0.428,0.653
				c0.505-0.09,3.983-1.018,4.725-0.942C138.131,74.25,139.087,73.768,138.071,73.324z"/>
			<path style="fill:#FD6C6B;" d="M146.593,73.709c-1.599-0.418-2.698-0.18-2.698-0.18c-1.016,0.445-0.06,0.926-0.06,0.926
				c0.398-0.041,1.58,0.207,2.671,0.459C146.538,74.513,146.57,74.111,146.593,73.709z"/>
			<path style="opacity:0.27;fill:#FD6C6B;" d="M136.096,79.789c0,0.337-0.69,0.61-1.542,0.61c-0.852,0-1.542-0.273-1.542-0.61
				s0.69-0.61,1.542-0.61C135.405,79.179,136.096,79.452,136.096,79.789z"/>
			<ellipse style="opacity:0.27;fill:#FD6C6B;" cx="145.156" cy="79.9" rx="1.052" ry="0.571"/>
			<path style="fill:#223147;" d="M147.487,73.964c-0.363-1.06-0.96-1.699-1.684-1.799c-0.721-0.097-1.472,0.354-2.107,1.277
				c-0.618,0.897-1.06,2.139-1.248,3.496c-0.02,0.146-0.023,0.286-0.037,0.43c-0.194-0.237-0.426-0.421-0.725-0.499
				c-0.726-0.193-1.554,0.148-1.936,0.338c0.077-1.193-0.08-2.334-0.486-3.263c-0.487-1.113-1.251-1.795-2.151-1.919
				c-0.904-0.119-1.821,0.326-2.59,1.266c-0.659,0.805-1.126,1.897-1.369,3.103l0.009-0.243l-7.084-0.282l-0.01,0.259l7.081,0.282
				c-0.034,0.172-0.078,0.338-0.103,0.514c-0.195,1.42-0.04,2.803,0.437,3.896c0.487,1.113,1.251,1.795,2.151,1.919
				c0.098,0.013,0.197,0.02,0.295,0.02c0.804,0,1.609-0.448,2.295-1.287c0.755-0.922,1.279-2.212,1.475-3.632
				c0.015-0.11,0.014-0.218,0.025-0.328c0.233-0.127,1.155-0.588,1.895-0.394c0.317,0.083,0.566,0.279,0.74,0.583l0.022-0.013
				c-0.153,2.503,0.675,4.568,2.004,4.751c0.064,0.009,0.127,0.013,0.191,0.013c1.397,0,2.791-2.077,3.164-4.786
				C147.929,76.31,147.839,74.995,147.487,73.964z M139.445,77.806c-0.189,1.374-0.693,2.618-1.418,3.504
				c-0.711,0.868-1.548,1.288-2.354,1.174c-0.808-0.111-1.5-0.739-1.95-1.767c-0.458-1.049-0.607-2.383-0.418-3.757
				c0.189-1.374,0.693-2.618,1.418-3.504c0.635-0.776,1.37-1.191,2.097-1.191c0.086,0,0.172,0.006,0.258,0.018
				c0.808,0.111,1.5,0.739,1.95,1.766C139.487,75.098,139.635,76.432,139.445,77.806z M147.486,77.633
				c-0.371,2.691-1.752,4.725-3.063,4.552c-1.318-0.182-2.09-2.519-1.718-5.211c0.181-1.318,0.609-2.521,1.204-3.385
				c0.527-0.766,1.124-1.178,1.698-1.178c0.054,0,0.108,0.003,0.162,0.011c0.622,0.085,1.146,0.663,1.474,1.626
				C147.582,75.041,147.668,76.314,147.486,77.633z"/>
			<g>
				<path style="fill:#FD6C6B;" d="M140.888,83.616c-0.06-0.005-0.111-0.044-0.12-0.096c-0.01-0.059,0.04-0.113,0.11-0.12
					c0.02-0.002,1.977-0.203,2.438-1.371c-0.238-0.361-1.749-2.779-0.983-4.769c0.022-0.056,0.092-0.087,0.162-0.066
					c0.068,0.02,0.106,0.081,0.084,0.138c-0.777,2.021,0.971,4.61,0.989,4.636l0.028,0.041l-0.016,0.045
					c-0.477,1.339-2.577,1.554-2.666,1.562C140.906,83.617,140.897,83.617,140.888,83.616z"/>
			</g>
			<g>
				<g>
					<path style="fill:#101A46;" d="M137.837,85.483c-0.002,0.054-0.007,0.108-0.007,0.163c0,1.843,1.242,3.336,2.775,3.336
						c1.533,0,2.775-1.494,2.775-3.336c0-0.055-0.005-0.109-0.007-0.163H137.837z"/>
				</g>
				<g>
					<path style="fill:#FD6C6B;" d="M138.861,88.222c0.478,0.468,1.079,0.761,1.744,0.761c0.75,0,1.429-0.362,1.928-0.943
						C141.394,87.426,139.95,87.531,138.861,88.222z"/>
				</g>
				<path style="fill:#FFFFFF;" d="M143.254,86.644c0.082-0.315,0.126-0.65,0.126-0.998c0-0.055-0.005-0.109-0.007-0.163h-5.536
					c-0.002,0.055-0.007,0.108-0.007,0.163c0,0.348,0.044,0.683,0.126,0.998H143.254z"/>
			</g>
			<g>
				<g style="opacity:0.17;">
					<path style="fill:#223147;" d="M115.04,72.212c-0.131,0-0.204-0.003-0.213-0.003c-0.143-0.006-0.254-0.126-0.248-0.269
						c0.006-0.143,0.104-0.24,0.269-0.248c0.126,0.007,13.038,0.373,22.31-10.528c0.092-0.109,0.255-0.122,0.365-0.029
						c0.109,0.092,0.122,0.256,0.029,0.365C128.772,71.821,116.781,72.212,115.04,72.212z"/>
				</g>
				<g style="opacity:0.17;">
					<path style="fill:#223147;" d="M115.733,69.778c-0.115,0-0.22-0.077-0.25-0.193c-0.036-0.138,0.046-0.279,0.185-0.315
						c0.141-0.037,14.162-3.77,18.913-10.896c0.079-0.119,0.24-0.151,0.359-0.072c0.119,0.079,0.151,0.24,0.072,0.359
						c-4.86,7.29-18.629,10.957-19.213,11.109C115.776,69.776,115.754,69.778,115.733,69.778z"/>
				</g>
				<g style="opacity:0.17;">
					<path style="fill:#223147;" d="M147.334,69.778c-0.021,0-0.041-0.003-0.063-0.008c-5.165-1.291-10.922-11.338-11.165-11.765
						c-0.071-0.124-0.027-0.282,0.097-0.353c0.123-0.071,0.282-0.028,0.353,0.097c0.059,0.102,5.889,10.282,10.84,11.519
						c0.138,0.035,0.223,0.175,0.188,0.314C147.555,69.7,147.45,69.778,147.334,69.778z"/>
				</g>
				<g style="opacity:0.17;">
					<path style="fill:#223147;" d="M147.462,67.219c-0.03,0-0.06-0.005-0.089-0.016c-3.879-1.423-8.264-8.631-8.448-8.937
						c-0.074-0.123-0.035-0.281,0.087-0.355c0.122-0.072,0.282-0.035,0.355,0.087c0.044,0.074,4.475,7.359,8.184,8.719
						c0.134,0.049,0.203,0.198,0.154,0.332C147.666,67.155,147.567,67.219,147.462,67.219z"/>
				</g>
				<g style="opacity:0.17;">
					<path style="fill:#223147;" d="M98.845,120.57c-0.057,0-0.114-0.019-0.162-0.057c-9.861-7.913,4.338-25.729,9.004-31.583
						c0.324-0.407,0.597-0.749,0.805-1.017c3.009-3.887,5.817-12.124,5.845-12.207c0.045-0.135,0.194-0.207,0.328-0.162
						c0.135,0.046,0.208,0.192,0.162,0.328c-0.116,0.341-2.864,8.403-5.925,12.357c-0.209,0.27-0.483,0.614-0.809,1.023
						c-4.587,5.755-18.544,23.268-9.085,30.858c0.112,0.089,0.129,0.252,0.04,0.363C98.996,120.536,98.921,120.57,98.845,120.57z"/>
				</g>
				<g style="opacity:0.17;">
					<path style="fill:#223147;" d="M106.138,123.257c-0.047,0-0.093-0.012-0.135-0.038c-4.862-2.982-7.452-6.813-7.699-11.383
						c-0.389-7.228,5.196-14.003,7.164-15.525c2.742-2.119,9.461-13.878,9.529-13.997c0.071-0.124,0.23-0.166,0.353-0.097
						c0.124,0.071,0.167,0.229,0.097,0.353c-0.278,0.487-6.839,11.968-9.662,14.15c-1.646,1.273-7.346,8.002-6.964,15.087
						c0.237,4.391,2.744,8.082,7.453,10.971c0.122,0.074,0.16,0.234,0.085,0.355C106.309,123.213,106.224,123.257,106.138,123.257z"
						/>
				</g>
			</g>
		</g>
		<g>
			<g>
				<ellipse style="fill:#F49231;" cx="170.442" cy="246.544" rx="20.911" ry="1.767"/>
				<rect x="169.411" y="141.103" style="fill:#F49231;" width="2.062" height="105.441"/>
				<ellipse style="fill:#F49231;" cx="170.442" cy="145.816" rx="50.659" ry="8.247"/>
				<ellipse style="fill:#F7F8F9;" cx="170.442" cy="142.871" rx="50.659" ry="8.247"/>
			</g>
			<path style="fill:#223147;" d="M115.451,137.312c0,0,18.127,7.906,35.114,8.535l2.679-5.859l-31.322-11.681
				C121.922,128.306,113.471,131.393,115.451,137.312z"/>
			<path style="fill:#F9B88C;" d="M153.244,139.987c0,0,8.563,0.952,8.871,3.258l-0.461,0.922l-12.299,0.769
				C149.355,144.936,150.216,140.111,153.244,139.987z"/>
			<g>
				<g>
					<g>
						<polygon style="fill:#223147;" points="167.604,146.367 217.614,146.32 224.532,108.808 174.858,108.464 						"/>
						<polygon style="fill:#223147;" points="148.432,147.34 217.596,146.32 218.075,142.784 148.432,143.839 						"/>
					</g>
					<path style="opacity:0.33;fill:#FFFFFF;" d="M195.374,125.747c0.043,1.626,1.395,3.944,3.022,3.901
						c1.626-0.043,2.91-2.43,2.867-4.056c-0.043-1.626-1.395-2.91-3.022-2.867C196.615,122.768,195.331,124.121,195.374,125.747z"/>
				</g>
				<rect x="165.19" y="144.322" style="opacity:0.33;fill:#FFFFFF;" width="0.615" height="1.691"/>
				<rect x="166.573" y="144.322" style="opacity:0.33;fill:#FFFFFF;" width="0.615" height="1.691"/>
				<g style="opacity:0.24;">
					<path style="fill:#63CFE8;" d="M169.341,146.142c-0.008,0-0.017-0.001-0.025-0.003c-0.07-0.014-0.116-0.082-0.101-0.152
						l7.379-37.205c0.014-0.07,0.076-0.118,0.152-0.101c0.07,0.014,0.116,0.082,0.102,0.152l-7.379,37.205
						C169.455,146.1,169.401,146.142,169.341,146.142z"/>
				</g>
			</g>
		</g>
		<g>
			<g>
				<path style="fill:#00A58C;" d="M189.817,166.948c13.599-2.893,9.608,37.086,9.259,44.348c-0.04,0.832,1.253,0.83,1.293,0
					c0.522-10.843,1.318-22.228-0.22-33.016c-0.822-5.764-3.206-14.168-10.675-12.579
					C188.66,165.874,189.004,167.121,189.817,166.948L189.817,166.948z"/>
			</g>
			<g>
				<path style="fill:#00A58C;" d="M199.983,176.772c-3.811-2.843-6.672,1.277-7.338,4.766c-1.68,8.79-0.445,18.668,1.117,27.393
					c0.146,0.818,1.392,0.471,1.247-0.344c-0.926-5.17-1.516-10.378-1.601-15.632c-0.037-2.278-0.104-19.563,5.923-15.067
					C199.997,178.386,200.643,177.265,199.983,176.772L199.983,176.772z"/>
			</g>
			<g>
				<path style="fill:#00A58C;" d="M197.951,176.518c0,0,2.864-5.823,8.525-3.494c5.661,2.329,8.924,18.879,8.059,22.557
					c0,0-20.046-8.397-20.979-11.094C192.623,181.79,192.69,177.07,197.951,176.518z"/>
				<path style="opacity:0.34;fill:#223147;" d="M214.633,195.566c-0.456-2.614-1.55-5.016-2.968-7.174l1.937,0.613
					c0.05,0.018,0.109-0.009,0.127-0.057c0.018-0.048-0.01-0.1-0.062-0.117l-2.168-0.686c-1.386-2.056-3.059-3.882-4.752-5.445
					l2.628,0.504c0.054,0.009,0.107-0.022,0.118-0.072c0.011-0.049-0.023-0.098-0.078-0.109l-2.926-0.561
					c-1.745-1.582-3.492-2.884-4.944-3.867l2.742,0.526c0.053,0.009,0.107-0.022,0.118-0.072c0.011-0.049-0.023-0.098-0.078-0.109
					l-3.179-0.609c-1.829-1.21-3.106-1.872-3.149-1.894l-0.097,0.161c0.043,0.022,1.336,0.692,3.181,1.916l0.254,2.805
					c0.004,0.048,0.048,0.084,0.1,0.084c0.003,0,0.005,0,0.008,0c0.055-0.004,0.096-0.048,0.091-0.099l-0.239-2.648
					c1.418,0.952,3.133,2.216,4.858,3.758l0.27,2.988c0.004,0.048,0.048,0.084,0.1,0.084c0.003,0,0.006,0,0.008,0
					c0.055-0.004,0.096-0.049,0.091-0.099l-0.249-2.759l0.018,0.003c1.721,1.565,3.433,3.404,4.851,5.482l-0.041,2.725
					c-0.001,0.051,0.043,0.093,0.098,0.093c0.001,0,0.001,0,0.002,0c0.055,0,0.099-0.04,0.1-0.09l0.037-2.438
					c1.431,2.161,2.538,4.569,2.996,7.192L214.633,195.566z"/>
				<path style="opacity:0.14;fill:#223147;" d="M197.898,176.527c-5.205,0.579-5.271,5.272-4.342,7.96
					c0.932,2.697,20.979,11.094,20.979,11.094c0.004-0.017,0.006-0.038,0.01-0.055C211.282,184.132,200.811,178.032,197.898,176.527
					z"/>
			</g>
			<g>
				<path style="fill:#00A58C;" d="M193.126,164.951c0,0-2.574-4.178-6.668-2.018c-4.094,2.16-5.363,14.853-4.447,17.559
					c0,0,14.488-7.761,14.996-9.858C197.516,168.537,197.127,164.989,193.126,164.951z"/>
				<path style="opacity:0.34;fill:#223147;" d="M181.936,180.488c0.156-2.001,0.807-3.888,1.719-5.614l-1.414,0.601
					c-0.037,0.017-0.083,0.001-0.1-0.034c-0.017-0.035,0-0.076,0.038-0.092l1.583-0.672c0.896-1.647,2.024-3.142,3.186-4.44
					l-1.942,0.568c-0.04,0.011-0.082-0.009-0.094-0.045c-0.012-0.036,0.011-0.076,0.051-0.087l2.163-0.633
					c1.2-1.316,2.421-2.422,3.444-3.266l-2.027,0.593c-0.04,0.01-0.082-0.009-0.094-0.045c-0.012-0.036,0.011-0.076,0.051-0.088
					l2.35-0.687c1.29-1.042,2.204-1.632,2.234-1.652l0.084,0.114c-0.031,0.019-0.956,0.617-2.257,1.671l0.01,2.13
					c0,0.036-0.03,0.067-0.069,0.071c-0.002,0-0.004,0-0.006,0c-0.042,0.001-0.076-0.03-0.076-0.068l-0.01-2.011
					c-0.999,0.818-2.199,1.893-3.387,3.178l0.011,2.269c0,0.036-0.03,0.067-0.069,0.071c-0.002,0-0.004,0-0.006,0
					c-0.042,0.001-0.076-0.03-0.076-0.068l-0.01-2.095l-0.013,0.004c-1.184,1.302-2.34,2.809-3.258,4.475l0.227,2.048
					c0.004,0.038-0.026,0.073-0.067,0.077c-0.001,0-0.001,0-0.001,0c-0.041,0.004-0.077-0.023-0.082-0.061l-0.203-1.833
					c-0.922,1.73-1.583,3.622-1.739,5.629L181.936,180.488z"/>
				<path style="opacity:0.14;fill:#223147;" d="M193.167,164.954c3.96,0.063,4.346,3.591,3.84,5.68
					c-0.508,2.097-14.996,9.858-14.996,9.858c-0.004-0.012-0.007-0.028-0.012-0.041C183.637,171.64,191.082,166.296,193.167,164.954
					z"/>
			</g>
			<g>
				<path style="fill:#F49231;" d="M180.802,206.769v20.366c0,6.826,5.585,12.41,12.41,12.41h6.399
					c6.826,0,12.411-5.585,12.411-12.41v-20.366H180.802z"/>
				<rect x="180.802" y="206.769" style="opacity:0.26;fill:#223147;" width="31.22" height="13.233"/>
				<rect x="178.446" y="203.613" style="fill:#F49231;" width="35.932" height="12.37"/>
				<g>
					<path style="fill:#FFFFFF;" d="M181.968,210.095c0,0.658-0.474,1.192-1.059,1.192c-0.585,0-1.06-0.534-1.06-1.192
						s0.474-1.192,1.06-1.192C181.494,208.903,181.968,209.437,181.968,210.095z"/>
					<ellipse style="fill:#FFFFFF;" cx="188.59" cy="210.095" rx="1.06" ry="1.192"/>
					<ellipse style="fill:#FFFFFF;" cx="196.272" cy="210.095" rx="1.06" ry="1.192"/>
					<path style="fill:#FFFFFF;" d="M205.014,210.095c0,0.658-0.474,1.192-1.059,1.192c-0.585,0-1.06-0.534-1.06-1.192
						s0.474-1.192,1.06-1.192C204.539,208.903,205.014,209.437,205.014,210.095z"/>
					<ellipse style="fill:#FFFFFF;" cx="211.636" cy="210.095" rx="1.06" ry="1.192"/>
				</g>
				<g>
					<ellipse style="fill:#FFFFFF;" cx="184.989" cy="224.002" rx="0.795" ry="0.894"/>
					<path style="fill:#FFFFFF;" d="M191.545,224.002c0,0.494-0.356,0.894-0.795,0.894c-0.439,0-0.795-0.4-0.795-0.894
						c0-0.494,0.356-0.894,0.795-0.894C191.189,223.108,191.545,223.508,191.545,224.002z"/>
					<ellipse style="fill:#FFFFFF;" cx="196.512" cy="224.002" rx="0.795" ry="0.894"/>
					<ellipse style="fill:#FFFFFF;" cx="202.273" cy="224.002" rx="0.795" ry="0.894"/>
					<path style="fill:#FFFFFF;" d="M208.829,224.002c0,0.494-0.356,0.894-0.795,0.894s-0.795-0.4-0.795-0.894
						c0-0.494,0.356-0.894,0.795-0.894S208.829,223.508,208.829,224.002z"/>
				</g>
			</g>
			<g>
				<path style="fill:#00A58C;" d="M191.908,190.415c0,0-5.056-4.068-9.203,0.435c-4.147,4.503-0.113,20.882,2.225,23.849
					c0,0,14.622-16.08,14.328-18.919C198.964,192.942,196.91,188.692,191.908,190.415z"/>
				<path style="opacity:0.34;fill:#223147;" d="M184.835,214.727c-0.691-2.562-0.714-5.202-0.341-7.757l-1.496,1.374
					c-0.038,0.038-0.103,0.038-0.139,0.002c-0.036-0.036-0.033-0.095,0.007-0.132l1.675-1.538c0.388-2.449,1.132-4.811,2.007-6.943
					l-2.169,1.567c-0.045,0.031-0.106,0.025-0.137-0.015c-0.031-0.04-0.02-0.099,0.024-0.132l2.415-1.745
					c0.913-2.171,1.946-4.089,2.848-5.593l-2.264,1.635c-0.045,0.03-0.106,0.025-0.137-0.015c-0.031-0.04-0.02-0.099,0.024-0.132
					l2.624-1.895c1.146-1.87,2.024-3.009,2.054-3.047l0.156,0.105c-0.03,0.038-0.918,1.192-2.074,3.08l0.955,2.65
					c0.016,0.045-0.008,0.097-0.054,0.118c-0.003,0.001-0.005,0.002-0.008,0.003c-0.052,0.019-0.107-0.003-0.125-0.051l-0.902-2.502
					c-0.883,1.462-1.904,3.332-2.815,5.459l1.017,2.822c0.016,0.045-0.008,0.097-0.055,0.118c-0.003,0.001-0.005,0.002-0.008,0.003
					c-0.052,0.019-0.107-0.003-0.125-0.051l-0.94-2.606l-0.015,0.011c-0.899,2.146-1.673,4.536-2.081,7.018l1.189,2.452
					c0.022,0.046,0,0.102-0.05,0.126c-0.001,0-0.001,0.001-0.001,0.001c-0.049,0.023-0.107,0.005-0.129-0.04l-1.064-2.194
					c-0.384,2.563-0.37,5.214,0.323,7.785L184.835,214.727z"/>
				<path style="opacity:0.14;fill:#223147;" d="M191.961,190.4c4.963-1.674,7.005,2.552,7.298,5.38
					c0.294,2.838-14.328,18.919-14.328,18.919c-0.011-0.013-0.022-0.032-0.033-0.046C183.042,202.948,189.956,192.995,191.961,190.4
					z"/>
			</g>
		</g>
	</g>
	<g>
		<g>
			<path style="opacity:0.18;fill:#63CFE8;" d="M100.388,428.714c-23.292-3.546-41.139-23.66-41.139-47.943
				c0-14.995,6.808-28.397,17.498-37.293c-4.531-7.376-7.148-16.055-7.148-25.347c0-26.785,21.714-48.499,48.499-48.499
				c26.489,0,48.004,21.24,48.477,47.616c3.017-0.489,6.11-0.754,9.265-0.754c31.737,0,57.465,25.728,57.465,57.465
				c0,25.647-16.804,47.361-40,54.754H100.388z"/>
			<g>
				<g>
					<path style="opacity:0.24;fill:#155897;" d="M54.1,440.195h9.643c-0.885-0.586-1.472-1.589-1.472-2.723
						c0-0.839,0.329-1.599,0.853-2.179h-6.3c-1.797,0-3.268-1.471-3.268-3.268c0-1.797,1.471-3.268,3.268-3.268h148.701
						c1.797,0,3.268,1.471,3.268,3.268c0,0.839-0.329,1.599-0.853,2.179h6.3c1.797,0,3.268,1.471,3.268,3.268
						c0,1.798-1.471,3.268-3.268,3.268h-9.643c0.885,0.586,1.473,1.589,1.473,2.723c0,1.798-1.471,3.268-3.268,3.268H54.1
						c-1.797,0-3.268-1.471-3.268-3.268C50.832,441.666,52.302,440.195,54.1,440.195z"/>
				</g>
				<g style="opacity:0.34;">
					<path style="fill:#223147;" d="M63.123,434.333h144.815c0.071,0,0.129-0.058,0.129-0.129s-0.058-0.129-0.129-0.129H63.123
						c-0.071,0-0.129,0.058-0.129,0.129S63.052,434.333,63.123,434.333z"/>
				</g>
				<g style="opacity:0.34;">
					<path style="fill:#223147;" d="M63.743,440.325h140.853c0.071,0,0.129-0.058,0.129-0.129s-0.058-0.129-0.129-0.129H63.743
						c-0.071,0-0.129,0.058-0.129,0.129S63.672,440.325,63.743,440.325z"/>
				</g>
			</g>
		</g>
		<g>
			<g>
				<g>
					<path style="fill:#00A58C;" d="M62.841,412.783c-0.314-2.297-7.594-56.483,1.248-77.704l1.909,0.796
						c-8.626,20.703-1.184,76.071-1.107,76.627L62.841,412.783z"/>
				</g>
				<path style="fill:#00A58C;" d="M61.476,348.749c0,0-3.37-27.881,8.901-25.518C82.647,325.593,61.476,348.749,61.476,348.749z"/>
				<path style="opacity:0.14;fill:#223147;" d="M70.377,323.231c-0.029-0.006-0.055-0.005-0.083-0.01
					c-4.404,7.745-7.352,16.383-8.473,25.145C64.466,345.391,81.73,325.417,70.377,323.231z"/>
				<path style="fill:#00A58C;" d="M60.947,364.086c0,0,4.978-27.639,16.011-21.773C87.991,348.18,60.947,364.086,60.947,364.086z"
					/>
				<path style="opacity:0.14;fill:#223147;" d="M77.156,342.438c-1.909,1.839-3.803,3.692-5.628,5.616
					c-3.682,3.88-9.386,9.367-9.978,15.067c-0.025,0.244-0.087,0.462-0.14,0.686C64.858,361.712,86.803,347.937,77.156,342.438z"/>
				<path style="fill:#00A58C;" d="M59.985,364.343c0,0-20.661-19.022-9.793-25.189C61.06,332.986,59.985,364.343,59.985,364.343z"
					/>
				<path style="opacity:0.14;fill:#223147;" d="M49.455,339.642c-7.195,5.23,3.549,17.612,8.378,22.58
					C56.139,354.346,53.27,346.781,49.455,339.642z"/>
				<path style="fill:#00A58C;" d="M60.688,380.964c0,0,5.849-27.468,16.691-21.256C88.221,365.921,60.688,380.964,60.688,380.964z"
					/>
				<path style="fill:#00A58C;" d="M61.165,381.412c0,0-23.899-14.749-14.401-22.869C56.262,350.422,61.165,381.412,61.165,381.412z
					"/>
				<path style="opacity:0.14;fill:#223147;" d="M77.666,359.901c-6.244,6.114-11.915,12.743-16.752,20.089
					c-0.148,0.611-0.226,0.974-0.226,0.974S87.655,366.223,77.666,359.901z"/>
				<path style="opacity:0.14;fill:#223147;" d="M46.62,359.323c-0.183-0.032-0.362-0.068-0.534-0.115
					c-5.737,6.255,5.943,15.818,11.887,20.053C55.528,372.064,51.379,365.114,46.62,359.323z"/>
				<path style="fill:#00A58C;" d="M60.491,392.959c0,0,9.822-26.31,19.634-18.572S60.491,392.959,60.491,392.959z"/>
				<path style="fill:#00A58C;" d="M61.901,393.979c0,0-26.451-9.437-18.857-19.36C50.638,364.695,61.901,393.979,61.901,393.979z"
					/>
				<path style="opacity:0.14;fill:#223147;" d="M80.125,374.387c-0.103-0.081-0.206-0.137-0.309-0.211
					c-6.432,4.934-12.643,10.036-17.225,16.988c-0.579,0.878-1.307,1.452-2.095,1.782c-0.001,0.001-0.005,0.013-0.005,0.013
					S89.936,382.125,80.125,374.387z"/>
				<path style="opacity:0.14;fill:#223147;" d="M43.103,374.551c-0.02,0.025-0.04,0.042-0.059,0.067
					c-6.794,8.878,13.65,17.361,18.034,19.051C56.542,385.834,50.344,378.615,43.103,374.551z"/>
				<path style="fill:#FD6C6B;" d="M47.371,398.128v20.366c0,6.826,5.585,12.41,12.41,12.41h6.399c6.826,0,12.41-5.585,12.41-12.41
					v-20.366H47.371z"/>
				<rect x="47.371" y="398.128" style="opacity:0.37;fill:#223147;" width="31.22" height="15.079"/>
				<rect x="45.015" y="394.972" style="fill:#FD6C6B;" width="35.932" height="12.37"/>
			</g>
			<path style="fill:#FFFFFF;" d="M55.22,400.825c0,1.388-1.125,2.514-2.514,2.514c-1.388,0-2.514-1.125-2.514-2.514
				c0-1.388,1.125-2.514,2.514-2.514C54.095,398.311,55.22,399.437,55.22,400.825z"/>
			<circle style="fill:#FFFFFF;" cx="60.806" cy="419.258" r="2.514"/>
			<circle style="fill:#FFFFFF;" cx="71.419" cy="402.5" r="2.514"/>
			<circle style="fill:#FFFFFF;" cx="72.536" cy="416.744" r="1.848"/>
			<circle style="fill:#FFFFFF;" cx="68.068" cy="424.737" r="1.848"/>
			<circle style="fill:#FFFFFF;" cx="51.869" cy="418.592" r="1.848"/>
			<circle style="fill:#FFFFFF;" cx="61.365" cy="401.104" r="1.848"/>
		</g>
		<g>
			<g>
				<path style="fill:#63CFE8;" d="M189.135,393.204H96.502c-6.6,0-12-5.4-12-12v-43.152c0-6.6,5.4-12,12-12h92.633
					c6.6,0,12,5.4,12,12v43.152C201.135,387.805,195.735,393.204,189.135,393.204z"/>
				<rect x="83.324" y="388.372" style="fill:#63CFE8;" width="116.044" height="44.299"/>
				<path style="opacity:0.33;fill:#223147;" d="M180.692,330.972h-75.746c-7.128,0-12.928,5.915-12.928,13.186v32.915
					c0,2.412,0.649,4.667,1.762,6.614h1.209c-1.22-1.905-1.936-4.174-1.936-6.614v-32.915c0-6.689,5.335-12.131,11.893-12.131h2.109
					v57.274h1.034v-57.274h68.983v57.274h1.034v-57.274h2.586c6.558,0,11.893,5.442,11.893,12.131v32.915
					c0,2.44-0.716,4.71-1.936,6.614h1.209c1.113-1.947,1.762-4.202,1.762-6.614v-32.915
					C193.62,336.887,187.82,330.972,180.692,330.972z"/>
				<path style="fill:#63CFE8;" d="M98.051,432.671V371.63c0-7.249-5.585-13.18-12.41-13.18h-0.508
					c-6.826,0-12.41,5.931-12.41,13.18v61.041H98.051z"/>
				<path style="fill:#63CFE8;" d="M214.684,432.671V371.63c0-7.249-5.585-13.18-12.41-13.18h-0.508
					c-6.826,0-12.41,5.931-12.41,13.18v61.041H214.684z"/>
				<circle style="opacity:0.37;fill:#223147;" cx="85.386" cy="372.882" r="7.363"/>
				<circle style="opacity:0.37;fill:#223147;" cx="203.197" cy="372.882" r="7.363"/>
				<g style="opacity:0.45;">
					<path style="fill:#223147;" d="M96.77,370.607c-1.767-13.197-11.577-12.675-11.674-12.673c-0.284,0.02-0.499,0.266-0.48,0.55
						c0.019,0.284,0.258,0.514,0.55,0.482c0.357-0.026,8.943-0.43,10.579,11.778c1.698,12.68,0.013,61.418-0.004,61.909
						c-0.01,0.286,0.213,0.525,0.498,0.535c0.006,0,0.012,0,0.019,0c0.277,0,0.507-0.22,0.516-0.499
						C96.792,432.198,98.479,383.373,96.77,370.607z"/>
					<path style="fill:#223147;" d="M201.924,357.934c-0.097,0.002-9.905-0.526-11.673,12.673
						c-0.495,3.695-0.705,10.415-0.753,18.106c-0.046-0.014-0.093-0.029-0.144-0.029H98.051c-0.286,0-0.517,0.231-0.517,0.517
						c0,0.286,0.231,0.517,0.517,0.517h91.303c0.049,0,0.094-0.015,0.139-0.028c-0.018,4.011,0.005,8.257,0.054,12.46
						c-0.06-0.024-0.124-0.039-0.192-0.039H98.051c-0.286,0-0.517,0.231-0.517,0.517s0.231,0.517,0.517,0.517h91.303
						c0.072,0,0.141-0.015,0.204-0.042c0.188,15.089,0.68,29.321,0.689,29.586c0.01,0.279,0.239,0.499,0.516,0.499
						c0.006,0,0.013,0,0.019,0c0.285-0.01,0.508-0.249,0.498-0.535c-0.017-0.491-1.702-49.229-0.004-61.909
						c1.635-12.209,10.214-11.806,10.578-11.778c0.296,0.03,0.531-0.198,0.55-0.482C202.423,358.2,202.208,357.954,201.924,357.934z
						"/>
				</g>
				<polygon style="opacity:0.34;fill:#223147;" points="214.356,426.19 72.404,426.19 72.404,427.224 78.601,427.224 
					78.601,432.782 79.635,432.782 79.635,427.224 87.233,427.224 87.233,432.782 88.267,432.782 88.267,427.224 103.858,427.224 
					103.858,432.782 104.892,432.782 104.892,427.224 112.171,427.224 112.171,432.782 113.205,432.782 113.205,427.224 
					120.483,427.224 120.483,432.782 121.517,432.782 121.517,427.224 128.796,427.224 128.796,432.782 129.83,432.782 
					129.83,427.224 137.108,427.224 137.108,432.782 138.142,432.782 138.142,427.224 145.421,427.224 145.421,432.782 
					146.455,432.782 146.455,427.224 153.733,427.224 153.733,432.782 154.767,432.782 154.767,427.224 162.046,427.224 
					162.046,432.782 163.08,432.782 163.08,427.224 170.358,427.224 170.358,432.782 171.392,432.782 171.392,427.224 
					178.671,427.224 178.671,432.782 179.705,432.782 179.705,427.224 198.173,427.224 198.173,432.782 199.207,432.782 
					199.207,427.224 206.805,427.224 206.805,432.782 207.839,432.782 207.839,427.224 214.356,427.224 				"/>
			</g>
			<path style="fill:#223147;" d="M88.252,396.209c-0.89-3.562-2.241-5.486-3.047-6.376c-0.134-7.322,0.685-16.779,0.696-16.905
				c0.025-0.285-0.185-0.535-0.47-0.561c-0.284-0.015-0.535,0.186-0.561,0.47c-0.042,0.472-0.716,8.257-0.721,15.16
				c-0.797,0.607-5.85,4.719-5.227,10.947c0.027,0.267,0.252,0.466,0.514,0.466c0.017,0,0.034-0.001,0.052-0.003
				c0.284-0.028,0.491-0.282,0.463-0.566c-0.386-3.859,1.717-6.892,3.29-8.587c-0.88,1.61-2.337,5.085-1.098,8.802
				c0.072,0.216,0.274,0.353,0.49,0.353c0.054,0,0.109-0.008,0.164-0.026c0.271-0.091,0.417-0.384,0.327-0.654
				c-1.117-3.353,0.277-6.596,1.062-8.034c0.064,2.105,0.215,4.004,0.498,5.421c0.049,0.246,0.265,0.416,0.507,0.416
				c0.033,0,0.068-0.003,0.102-0.01c0.28-0.056,0.461-0.328,0.405-0.608c-0.228-1.14-0.366-2.626-0.44-4.29
				c0.653,1.008,1.419,2.555,1.989,4.836c0.069,0.278,0.348,0.441,0.627,0.377C88.153,396.766,88.321,396.486,88.252,396.209z"/>
			<path style="fill:#223147;" d="M200.061,396.209c0.89-3.562,2.241-5.486,3.047-6.376c0.134-7.322-0.685-16.779-0.696-16.905
				c-0.025-0.285,0.185-0.535,0.47-0.561c0.284-0.015,0.535,0.186,0.561,0.47c0.042,0.472,0.716,8.257,0.721,15.16
				c0.797,0.607,5.85,4.719,5.227,10.947c-0.027,0.267-0.251,0.466-0.514,0.466c-0.017,0-0.034-0.001-0.052-0.003
				c-0.284-0.028-0.491-0.282-0.463-0.566c0.386-3.859-1.717-6.892-3.29-8.587c0.88,1.61,2.337,5.085,1.098,8.802
				c-0.072,0.216-0.274,0.353-0.49,0.353c-0.054,0-0.109-0.008-0.164-0.026c-0.271-0.091-0.417-0.384-0.327-0.654
				c1.117-3.353-0.277-6.596-1.062-8.034c-0.064,2.105-0.215,4.004-0.498,5.421c-0.049,0.246-0.265,0.416-0.507,0.416
				c-0.033,0-0.068-0.003-0.102-0.01c-0.28-0.056-0.461-0.328-0.405-0.608c0.228-1.14,0.366-2.626,0.44-4.29
				c-0.653,1.008-1.419,2.555-1.989,4.836c-0.069,0.278-0.348,0.441-0.627,0.377C200.16,396.766,199.991,396.486,200.061,396.209z"
				/>
		</g>
		<g>
			<g>
				<path style="fill:#F49231;" d="M190.997,433.439c-2.89-5.545-5.202-11.291-6.903-17.154c-0.875-3.015-1.518-6.407,0.501-9.031
					c2.037-2.646,6.172-3.652,9.993-3.863c3.821-0.212,7.734,0.151,11.43-0.666c2.805-0.621,5.33-1.892,8.087-2.641
					c2.758-0.749,6.054-0.888,8.327,0.589c1.933,1.256,2.659,3.35,3.275,5.302c1.897,6.004,3.794,12.008,5.69,18.013
					c0.903,2.858,1.693,6.202-0.562,8.51c-0.909,0.931-2.205,1.55-3.486,2.119c-6.62,2.942-13.728,5.152-21.069,6.551
					c-2.232,0.425-4.55,0.777-6.803,0.437c-2.253-0.34-4.45-1.511-5.16-3.289L190.997,433.439z"/>
			</g>
			<g style="opacity:0.32;">
				<path style="fill:#FFFFFF;" d="M196.11,430.578c-2.395-4.695-4.311-9.561-5.721-14.526c-0.725-2.553-1.258-5.425,0.415-7.647
					c1.688-2.24,5.115-3.092,8.282-3.271c3.166-0.179,6.41,0.128,9.473-0.564c2.325-0.526,4.417-1.602,6.702-2.236
					c2.285-0.634,5.017-0.752,6.901,0.499c1.602,1.064,2.203,2.836,2.714,4.49c1.572,5.084,3.144,10.168,4.716,15.252
					c0.748,2.42,1.403,5.252-0.466,7.207c-0.754,0.788-1.827,1.312-2.889,1.794c-5.486,2.491-11.377,4.362-17.461,5.547
					c-1.849,0.36-3.77,0.658-5.638,0.37c-1.868-0.288-3.688-1.279-4.276-2.785L196.11,430.578z"/>
			</g>
			<path style="opacity:0.44;fill:#223147;" d="M230.897,422.425l-4.864-15.398c-0.473-1.497-1.121-3.546-2.958-4.74
				c-2.518-1.637-6.036-0.932-7.431-0.553c-1.069,0.291-2.107,0.675-3.111,1.046c-1.221,0.451-2.484,0.919-3.785,1.207
				c-2.085,0.462-4.313,0.475-6.467,0.488c-1.064,0.007-2.163,0.013-3.241,0.074c-0.389,0.022-0.798,0.055-1.215,0.1
				c-0.017-0.045-0.035-0.092-0.051-0.137l-0.596,0.222c-2.571,0.352-5.39,1.221-6.966,3.268c-1.813,2.354-1.267,5.397-0.494,8.064
				c1.459,5.028,3.454,9.984,5.93,14.734l2.823,4.135c0.604,1.512,2.453,2.71,4.712,3.051c0.563,0.085,1.13,0.12,1.694,0.12
				c1.484,0,2.945-0.247,4.253-0.497c6.31-1.202,12.398-3.095,18.094-5.625c1.116-0.496,2.275-1.05,3.1-1.896
				C232.312,428.052,231.775,425.202,230.897,422.425z M219.292,412.296c3.474-1.03,6.068-1.94,6.791-2.535l2.9,9.18
				c-0.426,0.694-2.981,1.842-6.66,3.188L219.292,412.296z M221.593,422.393c-4.174,1.498-9.597,3.208-14.94,4.793
				c-1.301-3.128-2.759-6.771-4.203-10.46c5.265-1.286,11.377-2.838,16.098-4.211L221.593,422.393z M222.653,402.938
				c1.483,0.964,2.074,2.528,2.641,4.324l0.755,2.389l-0.438-0.501c-0.602,0.527-3.102,1.395-6.546,2.408l-2.828-9.172
				C217.708,402.032,220.589,401.596,222.653,402.938z M199.083,405.322c1.059-0.059,2.149-0.065,3.204-0.072
				c2.195-0.013,4.464-0.027,6.629-0.506c1.353-0.3,2.641-0.777,3.886-1.237c0.873-0.323,1.775-0.646,2.687-0.913l2.831,9.181
				c-4.59,1.327-10.635,2.87-16.156,4.22c-1.437-3.682-2.846-7.371-4.057-10.597C198.457,405.364,198.787,405.339,199.083,405.322z
				 M190.827,408.474c1.462-1.9,4.248-2.667,6.489-2.978c1.077,2.874,2.522,6.695,4.074,10.688
				c-3.922,0.955-7.515,1.798-10.064,2.38c-0.299-0.904-0.6-1.807-0.863-2.716C189.708,413.244,189.229,410.549,190.827,408.474z
				 M191.562,419.306c1.34-0.307,5.304-1.223,10.113-2.391c1.401,3.593,2.871,7.275,4.222,10.495
				c-3.41,1.006-6.757,1.952-9.699,2.752C194.378,426.637,192.825,423,191.562,419.306z M208.984,436.847
				c-1.741,0.331-3.762,0.661-5.684,0.371c-1.992-0.301-3.605-1.31-4.148-2.645l-2.534-3.72c1.57-0.429,5.23-1.44,9.582-2.72
				c1.74,4.11,3.246,7.337,4.097,8.445C209.86,436.669,209.424,436.764,208.984,436.847z M229.77,429.546
				c-0.73,0.746-1.813,1.262-2.861,1.728c-5.058,2.247-10.429,3.982-15.991,5.176l0.055-0.192c-0.523-0.343-2.069-3.695-4.018-8.348
				c4.86-1.437,10.437-3.17,14.866-4.78l2.715,8.806l0.741-0.228l-2.727-8.847c3.167-1.176,5.647-2.27,6.689-3.114l0.92,2.911
				C230.908,425.032,231.557,427.716,229.77,429.546z"/>
		</g>
		<g>
			<g>
				<path style="fill:#131C26;" d="M127.889,297.674c0,0-0.83,5.398-5.398,7.474c-4.567,2.076-18.062,15.363-4.775,23.668
					c13.287,8.304,42.352,7.266,44.844-1.661c2.491-8.927-3.114-34.463-5.605-39.446
					C154.463,282.727,132.249,279.82,127.889,297.674z"/>
				<path style="fill:#155897;" d="M146.367,380.661c0,0-43.899-22.68-50.109-9.985c0,0-8.192,10.026,38.09,25.92
					c0,0,6.724,3.137,10.865-4.72C145.212,391.876,149.981,383.768,146.367,380.661z"/>
				<path style="fill:#155897;" d="M141.786,381.139c0,0,43.899-22.68,50.109-9.985c0,0,8.192,10.026-38.09,25.92
					c0,0-6.724,3.137-10.865-4.719C142.941,392.354,138.172,384.247,141.786,381.139z"/>
				<g style="opacity:0.75;">
					<path style="fill:#223147;" d="M144.309,390.191c-0.113,0-0.225-0.049-0.302-0.144c-0.134-0.167-0.108-0.411,0.059-0.545
						c4.325-3.489,30.196-15.064,31.296-15.555c0.194-0.085,0.425,0.001,0.512,0.196c0.087,0.196,0,0.425-0.196,0.513
						c-0.268,0.119-26.878,12.024-31.125,15.451C144.48,390.163,144.395,390.191,144.309,390.191z"/>
				</g>
				<path style="fill:#F49231;" d="M162.532,369.202c-1.252-2.392-1.67-16.985-1.67-16.985c3.757-30.143-2.505-30.143-2.505-30.143
					l-7.352-3.009c-2.383,1.104-6.598,1.053-8.225,1.236c-1.626-0.183-3.908-0.132-6.292-1.236l-9.285,3.009
					c0,0-6.262,0-2.505,30.143c0,0-0.418,14.593-1.67,16.985c-1.136,2.17,10.43,9.841,19.445,11.251v0.09
					c0.101-0.013,0.205-0.031,0.306-0.045c0.102,0.014,0.205,0.032,0.306,0.045v-0.09
					C152.101,379.043,163.668,371.372,162.532,369.202z"/>
				<path style="fill:#F49231;" d="M127.431,322.298c0,0-3.176-2.01-10.586,11.598c-7.41,13.608-4.069,18.717,1.118,17.551
					S130.589,329.864,127.431,322.298z"/>
				<path style="fill:#F49231;" d="M158.35,322.254c0,0,3.389-1.626,9.161,12.754c5.771,14.38,1.856,19.064-3.159,17.301
					C159.337,350.546,154.331,329.4,158.35,322.254z"/>
				<path style="fill:#82450F;" d="M141.267,396.646c0,0,9.294,6.196,11.015,4.819c1.721-1.377,3.098-4.131,2.582-5.164
					c-0.516-1.033-9.652-4.426-9.652-4.426L141.267,396.646z"/>
				<path style="fill:#82450F;" d="M137.159,311.121l-0.777,8.871c0,0,8.084,5.561,14.417-0.613l-1.185-8.471L137.159,311.121z"/>
				<path style="opacity:0.27;fill:#131C26;" d="M150.297,315.789l-0.683-4.881l-12.455,0.213l-0.446,5.09
					C141.175,318.569,145.939,318.006,150.297,315.789z"/>
				<g style="opacity:0.75;">
					<path style="fill:#223147;" d="M145.8,391.201c-0.087,0-0.175-0.029-0.247-0.089c-4.524-3.751-32.811-16.775-33.096-16.907
						c-0.194-0.09-0.28-0.32-0.19-0.514c0.09-0.195,0.322-0.279,0.515-0.191c1.168,0.537,28.665,13.199,33.267,17.014
						c0.165,0.137,0.188,0.382,0.051,0.546C146.022,391.154,145.911,391.201,145.8,391.201z"/>
				</g>
			</g>
			<path style="fill:#82450F;" d="M143.069,315.885h-0.879c-7.066,0-12.848-5.781-12.848-12.848v-13.958
				c0-7.066,5.781-12.848,12.848-12.848h0.879c7.066,0,12.848,5.782,12.848,12.848v13.958
				C155.916,310.104,150.135,315.885,143.069,315.885z"/>
			<g>
				<path style="fill:#82450F;" d="M132.404,298.591c0,2.809-1.487,5.086-3.322,5.086c-1.835,0-3.322-2.277-3.322-5.086
					c0-2.809,1.487-5.086,3.322-5.086C130.916,293.505,132.404,295.783,132.404,298.591z"/>
				<ellipse style="opacity:0.27;fill:#131C26;" cx="129.082" cy="298.591" rx="1.957" ry="2.996"/>
			</g>
			<g>
				<path style="fill:#82450F;" d="M160.007,298.821c-0.189,2.671-1.826,4.731-3.656,4.602c-1.83-0.13-3.16-2.4-2.971-5.071
					c0.189-2.671,1.826-4.731,3.656-4.602S160.197,296.15,160.007,298.821z"/>
				<path style="opacity:0.27;fill:#131C26;" d="M158.437,298.948c-0.117,1.651-1.086,2.927-2.164,2.85
					c-1.078-0.077-1.857-1.477-1.74-3.127c0.117-1.651,1.086-2.927,2.164-2.851C157.775,295.897,158.554,297.297,158.437,298.948z"
					/>
			</g>
			<path style="fill:#131C26;" d="M131.973,286.323c0,0-0.97,15.029-0.139,16.483c0.83,1.453-4.36-0.208-4.152-10.588
				C127.681,292.218,130.52,284.662,131.973,286.323z"/>
			<path style="fill:#131C26;" d="M153.509,290.142c0,0,0.623,11.419-0.208,12.872c-0.831,1.453,4.363-2.761,4.155-13.142
				C157.457,289.872,154.962,288.481,153.509,290.142z"/>
			<g style="opacity:0.42;">
				<path style="fill:#131C26;" d="M143.494,324.042c-0.046,0-0.077-0.001-0.092-0.001c-6.755,0-9.37-3.867-9.478-4.032
					c-0.117-0.179-0.068-0.418,0.111-0.536c0.18-0.118,0.419-0.069,0.537,0.109c0.024,0.037,2.517,3.683,8.838,3.683
					c0.067,0.008,6.205,0.069,8.591-3.794c0.112-0.182,0.35-0.239,0.534-0.126c0.182,0.113,0.238,0.351,0.126,0.534
					C150.18,323.894,144.332,324.042,143.494,324.042z"/>
			</g>
			<g style="opacity:0.42;">
				<path style="fill:#131C26;" d="M127.013,342.365c-0.056,0-0.114-0.012-0.168-0.038c-3.282-1.585-1.712-5.062-1.122-6.371
					c0.094-0.207,0.168-0.361,0.187-0.444c0.078-0.394-0.109-2.276-0.246-3.37c-0.027-0.213,0.124-0.407,0.337-0.433
					c0.212-0.024,0.407,0.124,0.433,0.336c0.062,0.494,0.363,2.987,0.237,3.62c-0.028,0.139-0.108,0.317-0.241,0.611
					c-0.914,2.026-1.54,4.247,0.752,5.353c0.193,0.093,0.274,0.325,0.181,0.518C127.296,342.284,127.158,342.365,127.013,342.365z"
					/>
			</g>
			<g style="opacity:0.42;">
				<path style="fill:#131C26;" d="M156.317,342.365c-0.145,0-0.283-0.081-0.35-0.219c-0.093-0.193-0.012-0.425,0.181-0.518
					c2.292-1.106,1.666-3.327,0.752-5.353c-0.133-0.294-0.213-0.472-0.241-0.611c-0.126-0.632,0.175-3.126,0.237-3.62
					c0.026-0.213,0.22-0.366,0.433-0.336c0.213,0.026,0.364,0.22,0.337,0.433c-0.137,1.094-0.324,2.977-0.246,3.371
					c0.019,0.083,0.094,0.236,0.187,0.443c0.59,1.309,2.16,4.786-1.122,6.371C156.431,342.352,156.374,342.365,156.317,342.365z"/>
			</g>
			<g>
				<g>
					<circle style="fill:#FFFFFF;" cx="129.847" cy="324.46" r="0.566"/>
					<circle style="fill:#FFFFFF;" cx="129.847" cy="326.004" r="0.566"/>
					<circle style="fill:#FFFFFF;" cx="129.847" cy="327.547" r="0.566"/>
					<circle style="fill:#FFFFFF;" cx="131.391" cy="326.004" r="0.566"/>
					<circle style="fill:#FFFFFF;" cx="128.303" cy="326.004" r="0.566"/>
				</g>
				<g>
					<path style="fill:#FFFFFF;" d="M142.793,329.945c0,0.313-0.254,0.566-0.566,0.566c-0.313,0-0.566-0.254-0.566-0.566
						c0-0.313,0.253-0.566,0.566-0.566C142.54,329.379,142.793,329.633,142.793,329.945z"/>
					<path style="fill:#FFFFFF;" d="M142.793,331.489c0,0.313-0.254,0.566-0.566,0.566c-0.313,0-0.566-0.253-0.566-0.566
						c0-0.313,0.253-0.566,0.566-0.566C142.54,330.923,142.793,331.176,142.793,331.489z"/>
					<path style="fill:#FFFFFF;" d="M142.793,333.033c0,0.313-0.254,0.566-0.566,0.566c-0.313,0-0.566-0.253-0.566-0.566
						c0-0.313,0.253-0.566,0.566-0.566C142.54,332.467,142.793,332.72,142.793,333.033z"/>
					<circle style="fill:#FFFFFF;" cx="143.771" cy="331.489" r="0.566"/>
					<circle style="fill:#FFFFFF;" cx="140.684" cy="331.489" r="0.566"/>
				</g>
				<g>
					<circle style="fill:#FFFFFF;" cx="142.694" cy="375.367" r="0.566"/>
					<circle style="fill:#FFFFFF;" cx="142.694" cy="376.91" r="0.566"/>
					<path style="fill:#FFFFFF;" d="M143.26,378.454c0,0.313-0.253,0.566-0.566,0.566c-0.313,0-0.566-0.254-0.566-0.566
						c0-0.313,0.253-0.566,0.566-0.566C143.007,377.888,143.26,378.142,143.26,378.454z"/>
					<circle style="fill:#FFFFFF;" cx="144.238" cy="376.91" r="0.566"/>
					<circle style="fill:#FFFFFF;" cx="141.151" cy="376.91" r="0.566"/>
				</g>
				<g>
					<circle style="fill:#FFFFFF;" cx="133.889" cy="373.166" r="0.566"/>
					<circle style="fill:#FFFFFF;" cx="133.889" cy="374.71" r="0.566"/>
					<circle style="fill:#FFFFFF;" cx="133.889" cy="376.253" r="0.566"/>
					<path style="fill:#FFFFFF;" d="M135.433,375.276c-0.313,0-0.566-0.253-0.566-0.566c0-0.313,0.253-0.566,0.566-0.566
						c0.313,0,0.566,0.253,0.566,0.566C135.999,375.022,135.746,375.276,135.433,375.276z"/>
					<path style="fill:#FFFFFF;" d="M132.346,375.276c-0.313,0-0.566-0.253-0.566-0.566c0-0.313,0.253-0.566,0.566-0.566
						c0.313,0,0.566,0.253,0.566,0.566C132.912,375.022,132.658,375.276,132.346,375.276z"/>
				</g>
				<g>
					<circle style="fill:#FFFFFF;" cx="152.648" cy="372.599" r="0.566"/>
					<circle style="fill:#FFFFFF;" cx="152.648" cy="374.143" r="0.566"/>
					<circle style="fill:#FFFFFF;" cx="152.648" cy="375.687" r="0.566"/>
					<circle style="fill:#FFFFFF;" cx="154.191" cy="374.143" r="0.566"/>
					<circle style="fill:#FFFFFF;" cx="151.104" cy="374.143" r="0.566"/>
				</g>
				<g>
					<circle style="fill:#FFFFFF;" cx="120.287" cy="334.888" r="0.566"/>
					<circle style="fill:#FFFFFF;" cx="120.287" cy="336.432" r="0.566"/>
					<circle style="fill:#FFFFFF;" cx="120.287" cy="337.975" r="0.566"/>
					<circle style="fill:#FFFFFF;" cx="121.83" cy="336.432" r="0.566"/>
					<circle style="fill:#FFFFFF;" cx="118.743" cy="336.432" r="0.566"/>
				</g>
				<g>
					<circle style="fill:#FFFFFF;" cx="162.818" cy="334.888" r="0.566"/>
					<circle style="fill:#FFFFFF;" cx="162.818" cy="336.432" r="0.566"/>
					<circle style="fill:#FFFFFF;" cx="162.818" cy="337.975" r="0.566"/>
					<circle style="fill:#FFFFFF;" cx="164.362" cy="336.432" r="0.566"/>
					<circle style="fill:#FFFFFF;" cx="161.274" cy="336.432" r="0.566"/>
				</g>
				<g>
					<circle style="fill:#FFFFFF;" cx="133.028" cy="335.852" r="0.566"/>
					<circle style="fill:#FFFFFF;" cx="133.028" cy="337.396" r="0.566"/>
					<circle style="fill:#FFFFFF;" cx="133.028" cy="338.94" r="0.566"/>
					<circle style="fill:#FFFFFF;" cx="134.572" cy="337.396" r="0.566"/>
					<circle style="fill:#FFFFFF;" cx="131.485" cy="337.396" r="0.566"/>
				</g>
				<g>
					<path style="fill:#FFFFFF;" d="M151.593,336.214c0,0.313-0.253,0.566-0.566,0.566c-0.313,0-0.566-0.253-0.566-0.566
						c0-0.313,0.253-0.566,0.566-0.566C151.34,335.648,151.593,335.901,151.593,336.214z"/>
					<path style="fill:#FFFFFF;" d="M151.593,337.758c0,0.313-0.253,0.566-0.566,0.566c-0.313,0-0.566-0.253-0.566-0.566
						c0-0.313,0.253-0.566,0.566-0.566C151.34,337.192,151.593,337.445,151.593,337.758z"/>
					<path style="fill:#FFFFFF;" d="M151.593,339.301c0,0.313-0.253,0.566-0.566,0.566c-0.313,0-0.566-0.253-0.566-0.566
						c0-0.313,0.253-0.566,0.566-0.566C151.34,338.735,151.593,338.989,151.593,339.301z"/>
					<circle style="fill:#FFFFFF;" cx="152.571" cy="337.758" r="0.566"/>
					<circle style="fill:#FFFFFF;" cx="149.484" cy="337.758" r="0.566"/>
				</g>
				<g>
					<path style="fill:#FFFFFF;" d="M154.607,324.038c0,0.313-0.253,0.566-0.566,0.566c-0.313,0-0.566-0.253-0.566-0.566
						s0.254-0.566,0.566-0.566C154.354,323.472,154.607,323.726,154.607,324.038z"/>
					<path style="fill:#FFFFFF;" d="M154.607,325.582c0,0.313-0.253,0.566-0.566,0.566c-0.313,0-0.566-0.254-0.566-0.566
						c0-0.313,0.254-0.566,0.566-0.566C154.354,325.016,154.607,325.269,154.607,325.582z"/>
					<path style="fill:#FFFFFF;" d="M154.607,327.126c0,0.313-0.253,0.566-0.566,0.566c-0.313,0-0.566-0.253-0.566-0.566
						c0-0.313,0.254-0.566,0.566-0.566C154.354,326.56,154.607,326.813,154.607,327.126z"/>
					<path style="fill:#FFFFFF;" d="M155.585,326.148c-0.313,0-0.566-0.254-0.566-0.566c0-0.313,0.253-0.566,0.566-0.566
						c0.313,0,0.566,0.254,0.566,0.566C156.151,325.895,155.897,326.148,155.585,326.148z"/>
					<path style="fill:#FFFFFF;" d="M152.498,326.148c-0.313,0-0.566-0.254-0.566-0.566c0-0.313,0.253-0.566,0.566-0.566
						c0.313,0,0.566,0.254,0.566,0.566C153.064,325.895,152.81,326.148,152.498,326.148z"/>
				</g>
			</g>
			<path style="fill:#131C26;" d="M137.406,298.276c0,0.712-0.412,1.289-0.921,1.289c-0.508,0-0.92-0.577-0.92-1.289
				s0.412-1.289,0.92-1.289C136.993,296.988,137.406,297.565,137.406,298.276z"/>
			<path style="fill:#131C26;" d="M149.372,298.276c0,0.712-0.412,1.289-0.92,1.289c-0.508,0-0.921-0.577-0.921-1.289
				s0.412-1.289,0.921-1.289C148.96,296.988,149.372,297.565,149.372,298.276z"/>
			<path style="fill:#131C26;" d="M133.568,295.536c0,0,1.37-1.974,4.914-1.707c0,0,0.257,0.799-0.221,1.018
				C137.783,295.066,134.358,295.117,133.568,295.536z"/>
			<path style="fill:#131C26;" d="M151.013,294.917c0,0-1.37-1.974-4.914-1.707c0,0-0.257,0.799,0.221,1.018
				C146.798,294.447,150.223,294.498,151.013,294.917z"/>
			<ellipse style="fill:#FFFFFF;" cx="128.601" cy="303.861" rx="0.929" ry="0.967"/>
			<ellipse style="fill:#FFFFFF;" cx="156.697" cy="303.861" rx="0.929" ry="0.967"/>
			<path style="opacity:0.44;fill:#F9B88C;" d="M136.713,300.651c0,0.391-0.529,0.708-1.181,0.708c-0.652,0-1.181-0.317-1.181-0.708
				c0-0.391,0.529-0.708,1.181-0.708C136.184,299.942,136.713,300.259,136.713,300.651z"/>
			<path style="opacity:0.44;fill:#F9B88C;" d="M150.819,300.651c0,0.391-0.529,0.708-1.181,0.708c-0.652,0-1.181-0.317-1.181-0.708
				c0-0.391,0.529-0.708,1.181-0.708C150.29,299.942,150.819,300.259,150.819,300.651z"/>
			<g>
				<g>
					<path style="fill:#101A46;" d="M139.698,306.764c-0.002,0.055-0.007,0.108-0.007,0.164c0,1.843,1.242,3.336,2.775,3.336
						c1.533,0,2.775-1.494,2.775-3.336c0-0.055-0.005-0.109-0.007-0.164H139.698z"/>
				</g>
				<g>
					<path style="fill:#FD6C6B;" d="M140.723,309.503c0.478,0.468,1.079,0.761,1.744,0.761c0.75,0,1.429-0.362,1.928-0.943
						C143.256,308.707,141.812,308.812,140.723,309.503z"/>
				</g>
				<path style="fill:#FFFFFF;" d="M145.115,307.925c0.082-0.315,0.126-0.65,0.126-0.997c0-0.055-0.005-0.109-0.007-0.164h-5.536
					c-0.002,0.055-0.007,0.108-0.007,0.164c0,0.348,0.044,0.682,0.126,0.997H145.115z"/>
			</g>
			<path style="fill:#131C26;" d="M140.671,303.739c0.693,0.184,1.35,0.285,2.001,0.207c0.325-0.028,0.644-0.105,0.962-0.218
				c0.323-0.102,0.624-0.28,0.96-0.437c-0.223,0.326-0.502,0.61-0.829,0.804c-0.319,0.216-0.687,0.323-1.054,0.366
				C141.976,304.533,141.216,304.291,140.671,303.739z"/>
			<g>
				<path style="fill:#131C26;" d="M137.509,282.528c0,0,13.594,9.965,20.591,8.512c0,0-1-22.63-22.391-14.74
					C135.71,276.3,135.91,279.414,137.509,282.528z"/>
				<path style="fill:#131C26;" d="M127.681,292.218c-0.047,0.621,13.495-9.55,14.533-17.024
					C142.214,275.194,129.135,272.91,127.681,292.218z"/>
				<g style="opacity:0.25;">
					<path style="fill:#FFFFFF;" d="M157.325,290.95c-0.015,0-0.031-0.001-0.046-0.004c-10.699-1.911-21.513-12.814-21.621-12.925
						c-0.1-0.101-0.099-0.265,0.003-0.366c0.103-0.1,0.266-0.097,0.366,0.004c0.107,0.108,10.808,10.895,21.343,12.777
						c0.14,0.025,0.234,0.16,0.209,0.3C157.557,290.862,157.448,290.95,157.325,290.95z"/>
				</g>
				<g style="opacity:0.25;">
					<path style="fill:#FFFFFF;" d="M156.451,288.012c-4.958,0-17.897-10.097-18.467-10.544c-0.112-0.088-0.132-0.25-0.044-0.363
						c0.088-0.113,0.25-0.133,0.363-0.043c0.143,0.112,14.382,11.21,18.601,10.393c0.139-0.032,0.276,0.064,0.303,0.204
						c0.027,0.14-0.065,0.276-0.204,0.303C156.833,287.996,156.648,288.012,156.451,288.012z"/>
				</g>
				<g style="opacity:0.25;">
					<path style="fill:#FFFFFF;" d="M129.063,289.484c-0.102,0-0.197-0.06-0.239-0.16c-0.055-0.132,0.008-0.283,0.14-0.338
						c3.101-1.284,8.062-7.123,8.112-7.182c0.092-0.109,0.255-0.122,0.365-0.03c0.109,0.092,0.123,0.254,0.03,0.364
						c-0.206,0.244-5.092,5.995-8.309,7.327C129.129,289.478,129.096,289.484,129.063,289.484z"/>
				</g>
			</g>
			<g>
				<rect x="114.644" y="341.792" style="fill:#223147;" width="58.089" height="31.953"/>
				<path style="opacity:0.35;fill:#131C26;" d="M156.309,366.542c-6.626-0.041-13.788-0.079-20.254-1.701
					c-9.559-2.397-18.034-8.582-21.412-17.498v26.401h58.089v-8.784C167.385,366.253,161.783,366.576,156.309,366.542z"/>
				<polygon style="opacity:0.46;fill:#FCFCFC;" points="144.397,352.767 140.306,359.852 148.488,359.852 				"/>
			</g>
		</g>
	</g>
	<g>
		<g>
			<path style="opacity:0.18;fill:#63CFE8;" d="M325.412,428.714c-23.292-3.546-41.139-23.66-41.139-47.943
				c0-14.995,6.808-28.397,17.498-37.293c-4.531-7.376-7.148-16.055-7.148-25.347c0-26.785,21.714-48.499,48.499-48.499
				c26.489,0,48.004,21.24,48.476,47.616c3.017-0.489,6.11-0.754,9.265-0.754c31.737,0,57.465,25.728,57.465,57.465
				c0,25.647-16.804,47.361-40,54.754H325.412z"/>
			<g>
				<g>
					<path style="opacity:0.24;fill:#155897;" d="M279.124,440.195h9.643c-0.885-0.586-1.473-1.589-1.473-2.723
						c0-0.839,0.329-1.599,0.853-2.179h-6.3c-1.797,0-3.268-1.471-3.268-3.268c0-1.797,1.471-3.268,3.268-3.268h148.701
						c1.797,0,3.268,1.471,3.268,3.268c0,0.839-0.329,1.599-0.853,2.179h6.3c1.797,0,3.268,1.471,3.268,3.268
						c0,1.798-1.471,3.268-3.268,3.268h-9.643c0.885,0.586,1.473,1.589,1.473,2.723c0,1.798-1.471,3.268-3.268,3.268H279.124
						c-1.797,0-3.268-1.471-3.268-3.268C275.856,441.666,277.326,440.195,279.124,440.195z"/>
				</g>
				<g style="opacity:0.34;">
					<path style="fill:#223147;" d="M288.147,434.333h144.815c0.071,0,0.129-0.058,0.129-0.129s-0.058-0.129-0.129-0.129H288.147
						c-0.071,0-0.129,0.058-0.129,0.129S288.076,434.333,288.147,434.333z"/>
				</g>
				<g style="opacity:0.34;">
					<path style="fill:#223147;" d="M288.767,440.325H429.62c0.071,0,0.129-0.058,0.129-0.129s-0.058-0.129-0.129-0.129H288.767
						c-0.071,0-0.129,0.058-0.129,0.129S288.696,440.325,288.767,440.325z"/>
				</g>
			</g>
		</g>
		<g>
			<g>
				<g>
					<path style="fill:#00A58C;" d="M353.025,335.288c-5.557-0.866-9.996-6.342-9.693-11.958c0.156-2.891,1.39-5.854,0.443-8.59
						c-1.532-4.425-7.768-5.594-9.675-9.87c-1.391-3.119,0.01-6.77-0.506-10.146c-0.617-4.037-3.834-7.112-5.692-10.749
						c-1.858-3.637-1.499-9.312,2.439-10.395c3.022-0.831,5.948,1.753,7.425,4.518c1.477,2.765,2.265,5.986,4.464,8.22
						c1.981,2.012,4.795,2.902,7.324,4.157c2.53,1.255,5.059,3.266,5.39,6.07c0.175,1.485-0.303,2.995-0.082,4.474
						c0.534,3.574,4.559,5.237,7.467,7.384c3.992,2.948,6.43,7.891,6.339,12.852c-0.091,4.962-2.708,9.812-6.805,12.612
						L353.025,335.288z"/>
				</g>
				<g style="opacity:0.14;">
					<path style="fill:#223147;" d="M353.117,314.595c-0.465-0.722-0.694-1.434-0.744-2.113c-1.214-2.091-2.379-4.22-3.452-6.438
						c-3.031-6.266-6.272-12.103-10.026-17.955c-3.043-4.743-5.263-10.016-8.761-14.433c-3.735,1.227-4.056,6.749-2.232,10.319
						c1.858,3.637,5.075,6.711,5.692,10.749c0.516,3.376-0.885,7.027,0.506,10.146c1.908,4.276,8.143,5.445,9.675,9.87
						c0.947,2.736-0.287,5.698-0.443,8.59c-0.303,5.616,4.136,11.092,9.693,11.958l8.838-1.422c0.148-0.101,0.286-0.214,0.429-0.322
						C360.358,326.8,356.928,320.505,353.117,314.595z"/>
				</g>
				<path style="opacity:0.5;fill:#223147;" d="M358.523,324.329c0.016-0.027,0.041-0.049,0.046-0.082
					c0.022-0.14-0.076-0.273-0.217-0.294l-0.009-0.001c-2.378-4.966-5.701-11.227-9.229-17.625l3.862-13.461
					c0.039-0.137-0.04-0.281-0.177-0.32c-0.141-0.042-0.281,0.04-0.32,0.177l-3.719,12.963c-0.389-0.704-0.78-1.409-1.172-2.114
					l3.012-12.264c0.034-0.138-0.051-0.279-0.189-0.313c-0.138-0.034-0.279,0.052-0.313,0.19l-2.88,11.725
					c-7.841-14.053-16.014-27.755-16.656-28.831c-0.074-0.124-0.232-0.161-0.355-0.09c-0.122,0.074-0.163,0.232-0.089,0.355
					c0.132,0.22,5.898,9.886,12.444,21.388l-8.744-2.082c-0.142-0.036-0.279,0.053-0.311,0.192
					c-0.033,0.138,0.052,0.278,0.191,0.311l9.213,2.194c1.359,2.391,2.746,4.853,4.121,7.322l-0.031,0.126
					c-0.034,0.138,0.051,0.279,0.189,0.313c0.021,0.005,0.041,0.007,0.062,0.007c0.009,0,0.015-0.007,0.024-0.008
					c3.952,7.105,7.772,14.221,10.442,19.751l-13.966-2.116c-0.14-0.021-0.273,0.075-0.294,0.217
					c-0.022,0.14,0.076,0.273,0.217,0.294l14.315,2.168c1.911,3.999,3.178,7.106,3.386,8.671c0.018,0.129,0.129,0.224,0.256,0.224
					c0.012,0,0.023-0.001,0.034-0.002c0.142-0.019,0.241-0.15,0.223-0.291C361.675,331.424,360.418,328.314,358.523,324.329z"/>
			</g>
			<g>
				<g>
					<path style="fill:#00A58C;" d="M361.531,312.984c-3.603-2.085-5.201-7.053-3.488-10.848c0.882-1.954,2.526-3.668,2.605-5.81
						c0.127-3.464-3.863-5.94-4.035-9.401c-0.125-2.525,1.819-4.67,2.367-7.138c0.655-2.951-0.742-5.935-1.051-8.942
						c-0.309-3.007,1.458-6.828,4.466-6.521c2.308,0.236,3.636,2.802,3.915,5.106c0.279,2.303-0.039,4.738,0.881,6.868
						c0.829,1.919,2.532,3.286,3.942,4.83c1.41,1.543,2.617,3.608,2.095,5.632c-0.276,1.072-1.011,1.986-1.254,3.065
						c-0.589,2.609,1.745,4.835,3.176,7.095c1.966,3.103,2.325,7.167,0.934,10.567c-1.391,3.4-4.496,6.047-8.073,6.882
						L361.531,312.984z"/>
				</g>
				<g style="opacity:0.14;">
					<path style="fill:#223147;" d="M367.134,298.728c-0.128-0.623-0.095-1.175,0.052-1.657c-0.278-1.768-0.512-3.549-0.659-5.367
						c-0.414-5.136-1.088-10.032-2.113-15.076c-0.83-4.088-0.951-8.321-2.183-12.306c-2.906-0.153-4.606,3.572-4.303,6.524
						c0.309,3.007,1.706,5.99,1.051,8.942c-0.548,2.468-2.492,4.613-2.367,7.138c0.172,3.462,4.162,5.938,4.035,9.402
						c-0.079,2.142-1.723,3.856-2.605,5.81c-1.712,3.795-0.115,8.762,3.488,10.848l6.48,1.385c0.129-0.03,0.255-0.071,0.382-0.107
						C368.864,309.089,368.182,303.827,367.134,298.728z"/>
				</g>
				<path style="opacity:0.5;fill:#223147;" d="M368.259,306.893c0.018-0.015,0.041-0.023,0.053-0.044
					c0.053-0.091,0.021-0.208-0.071-0.261l-0.006-0.003c-0.312-4.063-0.929-9.274-1.651-14.634l6.268-8.256
					c0.064-0.084,0.048-0.205-0.037-0.268c-0.086-0.067-0.205-0.047-0.268,0.036l-6.037,7.951c-0.08-0.59-0.161-1.181-0.243-1.773
					l5.362-7.658c0.061-0.086,0.04-0.206-0.047-0.267c-0.086-0.061-0.206-0.039-0.267,0.047l-5.126,7.321
					c-1.649-11.797-3.622-23.442-3.777-24.356c-0.018-0.106-0.117-0.174-0.221-0.157c-0.104,0.018-0.174,0.117-0.156,0.221
					c0.032,0.187,1.424,8.401,2.862,18.092l-5.477-3.778c-0.088-0.063-0.206-0.038-0.266,0.049c-0.06,0.087-0.038,0.206,0.049,0.266
					l5.771,3.981c0.298,2.014,0.596,4.084,0.884,6.156l-0.055,0.079c-0.061,0.086-0.04,0.206,0.047,0.267
					c0.013,0.009,0.027,0.016,0.041,0.021c0.006,0.002,0.012-0.001,0.018,0.001c0.825,5.962,1.557,11.895,1.919,16.426l-9.072-5.199
					c-0.091-0.052-0.209-0.022-0.261,0.071c-0.053,0.091-0.021,0.208,0.071,0.261l9.299,5.329c0.248,3.271,0.291,5.755,0.016,6.891
					c-0.022,0.094,0.029,0.189,0.117,0.223c0.008,0.003,0.016,0.006,0.024,0.008c0.103,0.025,0.207-0.038,0.232-0.141
					C368.535,312.633,368.5,310.15,368.259,306.893z"/>
			</g>
		</g>
		<g>
			<g>
				<path style="fill:#F49231;" d="M323.909,423.428c-10.959-3.22-12.125-19.779-13.882-31.065
					c-1.757-11.286,1.962-24.233,11.818-30.006c9.685-5.672,23.02-3.426,31.598-10.664c9.878-8.335,7.871-23.921,12.746-35.891
					c5.727-14.064,21.837-22.405,36.962-21.049c15.124,1.356,28.705,11.252,36.692,24.167c7.987,12.915,10.839,28.508,10.419,43.687
					c-0.408,14.749-3.902,29.691-12.037,42c-8.135,12.309-21.28,21.706-35.943,23.348
					C402.282,427.955,368.631,436.568,323.909,423.428z"/>
			</g>
			<g style="opacity:0.14;">
				<path style="fill:#131C26;" d="M344.076,394.559c7.047,4.492,16.559,4.404,24.618,4.687c10.053,0.352,20.52,0.162,29.974-3.691
					c21.07-8.588,31.602-33.439,30.171-55.042c-0.796-12.022-6.257-23.201-14.226-32.132c-3.499-3.921-8.114-8.743-13.473-10.148
					c-2.716-0.014-5.439,0.273-8.104,0.839c-0.282,1.531-1.219,2.967-2.988,3.693c-6.801,2.788-6.805,17.735-7.573,23.66
					c-1.392,10.746-6.487,19.89-14.279,27.431c-7.344,7.108-16.498,11.639-24.168,18.233
					C336.908,378.209,335.261,388.94,344.076,394.559z"/>
			</g>
		</g>
		<path style="fill:#155897;" d="M414.15,369.735c0,0,3.729,15.195-18.922,14.376c0,0-20.548-2.208-18.285-21.043
			C376.942,363.068,409.046,361.778,414.15,369.735z"/>
		<path style="fill:#82450F;" d="M408.351,308.711c0,0,4.229,0.338,5.244-5.582l0.338-4.567
			C413.933,298.561,405.814,305.666,408.351,308.711z"/>
		<path style="fill:#223147;" d="M390.762,292.587c-0.452,4.052-3.009,7.094-5.711,6.792c-2.703-0.301-4.527-3.831-4.076-7.883
			c0.452-4.053,3.009-7.094,5.711-6.792C389.389,285.005,391.214,288.535,390.762,292.587z"/>
		<path style="fill:#F9B88C;" d="M395.711,306.797l-1.876,9.821c0,0,7.342,7.106,14.404,0.913l-0.123-9.592L395.711,306.797z"/>
		<path style="fill:#F9B88C;" d="M397.845,312.329l-0.874-0.097c-7.023-0.783-12.128-7.169-11.345-14.192l1.546-13.873
			c0.783-7.023,7.169-12.128,14.192-11.345l0.874,0.097c7.023,0.783,12.128,7.169,11.346,14.192l-1.546,13.872
			C411.254,308.006,404.868,313.112,397.845,312.329z"/>
		<path style="fill:#223147;" d="M418.263,295.738c-0.452,4.053-3.009,7.094-5.711,6.792c-2.702-0.301-4.527-3.831-4.076-7.883
			c0.452-4.052,3.009-7.094,5.711-6.792C416.89,288.156,418.715,291.686,418.263,295.738z"/>
		<path style="fill:#223147;" d="M385.632,318.351c0,0-7.118-0.18-11.638,7.166c-4.52,7.346-25.992,14.126-25.992,14.126
			s-1.13,4.52,3.39,4.52c4.52,0,23.103,1.554,32.773-12.996C393.835,316.617,385.632,318.351,385.632,318.351z"/>
		<path style="fill:#223147;" d="M413.534,287.548c0,0-3.454-18.002-21.215-12.273c0,0,3.724-6.589,14.61-2.865
			c0,0,9.167,3.151,8.88,15.756L413.534,287.548z"/>
		<path style="fill:#82450F;" d="M404.629,277.755c0,0-13.533,6.428-18.607,0.507l1.692-0.169c0,0-4.398-1.861-2.707-6.428
			C385.007,271.665,399.555,270.65,404.629,277.755z"/>
		<path style="fill:#82450F;" d="M403.615,278.093c0,0,2.537,5.075,4.906,5.921c0,0-2.537,9.135-1.015,11.334
			c0,0,2.201-8.218,6.683-7.492c0,0,0.76-14.16-13.787-14.16C400.4,273.695,403.107,277.755,403.615,278.093z"/>
		<path style="fill:#82450F;" d="M389.236,279.861c0,0-1.184,4.425-1.015,5.752l-2.368-0.221c0,0-0.507-3.982,1.692-6.416
			L389.236,279.861z"/>
		<g>
			<path style="fill:#101A46;" d="M390.81,292.562c0,0.895-0.484,1.621-1.081,1.621c-0.597,0-1.081-0.726-1.081-1.621
				s0.484-1.621,1.081-1.621C390.326,290.941,390.81,291.666,390.81,292.562z"/>
			<ellipse style="fill:#101A46;" cx="400.753" cy="292.562" rx="1.081" ry="1.621"/>
			<path style="fill:#FD6C6B;" d="M392.107,291.373c-0.046,0.572-0.144,1.139-0.262,1.703c-0.128,0.561-0.283,1.118-0.476,1.666
				c-0.207,0.542-0.442,1.082-0.787,1.572c-0.334,0.479-0.797,0.97-1.46,1.104l0.168-0.176c-0.039,0.378,0.043,0.814,0.237,1.164
				c0.195,0.356,0.509,0.646,0.882,0.848c0.18,0.115,0.39,0.175,0.592,0.255c0.209,0.058,0.423,0.108,0.639,0.156
				c0.219,0.029,0.438,0.074,0.66,0.092c0.223,0.01,0.446,0.028,0.671,0.046c-0.223,0.022-0.448,0.043-0.674,0.057
				c-0.226,0.011-0.453-0.005-0.681-0.007c-0.454-0.039-0.914-0.124-1.343-0.326c-0.429-0.188-0.834-0.499-1.082-0.927
				c-0.254-0.427-0.37-0.908-0.32-1.423l0.014-0.143l0.154-0.033c0.479-0.103,0.886-0.492,1.199-0.931
				c0.316-0.445,0.574-0.945,0.795-1.462c0.228-0.515,0.422-1.049,0.591-1.591C391.805,292.476,391.959,291.927,392.107,291.373z"/>
			<path style="fill:#101A46;" d="M397.647,285.817c0,0-0.375,1.265,0.53,1.4c0.904,0.136,5.137,0.275,6.281,1.272
				c0,0,1.314-0.133,0.844-0.699S400.866,285.309,397.647,285.817z"/>
			<path style="fill:#101A46;" d="M391.807,285.281c-1.626-0.257-3.441,0.105-4.901,0.599c-0.026,0.451-0.053,0.903-0.081,1.354
				c1.677-0.366,3.836-0.461,4.452-0.553C392.181,286.546,391.807,285.281,391.807,285.281z"/>
		</g>
		<g>
			<g>
				<path style="fill:#101A46;" d="M390.44,302.605c-0.002,0.055-0.007,0.108-0.007,0.164c0,1.842,1.243,3.336,2.775,3.336
					c1.533,0,2.775-1.494,2.775-3.336c0-0.055-0.005-0.109-0.007-0.164H390.44z"/>
			</g>
			<g>
				<path style="fill:#FD6C6B;" d="M391.464,305.344c0.478,0.468,1.079,0.761,1.744,0.761c0.75,0,1.429-0.362,1.928-0.943
					C393.997,304.548,392.553,304.653,391.464,305.344z"/>
			</g>
			<path style="fill:#FFFFFF;" d="M395.857,303.766c0.082-0.315,0.126-0.65,0.126-0.997c0-0.055-0.005-0.109-0.007-0.164h-5.536
				c-0.002,0.055-0.007,0.108-0.007,0.164c0,0.348,0.044,0.682,0.126,0.997H395.857z"/>
		</g>
		<g>
			<path style="fill:#155897;" d="M383.564,371.608c0,0,49.23-4.223,50.13,9.881c0,0,3.748,12.393-45.096,9.434
				c0,0-7.412,0.335-8.244-8.507C380.354,382.415,379.037,373.101,383.564,371.608z"/>
			<path style="fill:#F9B88C;" d="M383.444,382.647c0,0-13.193,0.989-13.796,3.529c-0.603,2.54,0.118,6.114,1.353,6.702
				c1.235,0.588,12.237-2.902,12.237-2.902L383.444,382.647z"/>
			<g style="opacity:0.44;">
				<path style="fill:#D5D8DB;" d="M384.488,383.492c-0.195-0.006-0.37-0.167-0.424-0.41c-0.066-0.3,0.079-0.613,0.323-0.699
					c5.124-1.79,31.934-2.324,33.073-2.346c0.235-0.008,0.457,0.245,0.459,0.557c0,0.311-0.204,0.569-0.457,0.574
					c-0.277,0.004-27.827,0.552-32.835,2.303C384.579,383.487,384.533,383.494,384.488,383.492z"/>
			</g>
		</g>
		<g>
			<g>
				<path style="fill:#223147;" d="M387.685,358.481h-77.38c-1.723,0-3.133-1.41-3.133-3.133v-0.214c0-1.723,1.41-3.133,3.133-3.133
					h77.38c1.723,0,3.133,1.41,3.133,3.133v0.214C390.818,357.071,389.408,358.481,387.685,358.481z"/>
				<path style="fill:#223147;" d="M364.745,437.414h-55.448c-1.169,0-2.126-0.957-2.126-2.126v-0.145
					c0-1.169,0.957-2.126,2.126-2.126h55.448c1.169,0,2.126,0.957,2.126,2.126v0.145
					C366.871,436.458,365.915,437.414,364.745,437.414z"/>
				<path style="fill:#223147;" d="M311.639,435.058h-0.097c-0.783,0-1.424-0.641-1.424-1.424v-77.264
					c0-0.783,0.641-1.424,1.424-1.424h0.097c0.783,0,1.424,0.641,1.424,1.424v77.264
					C313.063,434.417,312.422,435.058,311.639,435.058z"/>
				<g>
					<polygon style="fill:#FFFFFF;" points="373.146,351.412 323.076,351.412 314.241,313.713 364.899,313.713 					"/>
					<rect x="352.529" y="349.351" style="fill:#FFFFFF;" width="35.343" height="2.651"/>
				</g>
				<g>
					<path style="fill:#223147;" d="M305.196,333.152v12.135c0,3.485,3.119,6.337,6.931,6.337l0,0c3.812,0,6.931-2.852,6.931-6.337
						v-12.135H305.196z"/>
					<g>
						<path style="fill:#223147;" d="M305.196,347.592c-3.152,0-5.715-2.661-5.715-5.931c0-3.271,2.564-5.933,5.715-5.933
							c3.152,0,5.715,2.661,5.715,5.933C310.912,344.931,308.348,347.592,305.196,347.592z M305.196,336.762
							c-2.581,0-4.681,2.198-4.681,4.898c0,2.701,2.1,4.897,4.681,4.897c2.581,0,4.681-2.197,4.681-4.897
							C309.877,338.96,307.778,336.762,305.196,336.762z"/>
					</g>
				</g>
				<circle style="opacity:0.18;fill:#63CFE8;" cx="341.926" cy="332.563" r="2.945"/>
			</g>
			<path style="opacity:0.03;fill:#223147;" d="M314.241,313.713l8.836,37.699h49.254
				C372.331,351.412,325.143,351.692,314.241,313.713z"/>
		</g>
		<g>
			<g>
				<path style="fill:#FD6C6B;" d="M400.921,395.7c-6.775,2.056-11.366,8.964-12.002,16.015c-0.636,7.051,2.151,14.074,6.315,19.8
					c1.981,2.724,4.295,5.234,7.029,7.201c8.754,6.298,21.701,5.956,30.111-0.794c8.41-6.75,11.545-19.316,7.29-29.225
					c-4.254-9.909-15.524-16.291-26.21-14.843L400.921,395.7z"/>
			</g>
			<g style="opacity:0.32;">
				<path style="fill:#FFFFFF;" d="M408.702,396.886c-5.352,1.624-8.979,7.082-9.481,12.652c-0.502,5.57,1.699,11.118,4.989,15.642
					c1.565,2.152,3.393,4.135,5.553,5.689c6.915,4.975,17.143,4.706,23.787-0.627c6.644-5.332,9.12-15.26,5.76-23.088
					c-3.361-7.828-12.264-12.87-20.706-11.726L408.702,396.886z"/>
			</g>
			<circle style="opacity:0.46;fill:#223147;" cx="413.108" cy="413.509" r="2.093"/>
			<circle style="opacity:0.46;fill:#223147;" cx="426.566" cy="406.332" r="2.093"/>
			<circle style="opacity:0.46;fill:#223147;" cx="420.585" cy="426.368" r="2.093"/>
			<circle style="opacity:0.46;fill:#223147;" cx="436.435" cy="418.593" r="2.093"/>
		</g>
		<path style="fill:none;stroke:#63CFE8;stroke-width:0.5;stroke-miterlimit:10;" d="M416.49,295.655
			c-0.362,2.127-1.72,3.67-3.034,3.447c-1.314-0.224-2.085-2.129-1.724-4.256s1.72-3.67,3.034-3.447
			C416.08,291.623,416.852,293.528,416.49,295.655z"/>
		<g>
			<g>
				<path style="fill:#F9B88C;" d="M447.447,322.133l3.932-5.385c0.771-0.853,2.818-3.127,2.981-3.397
					c0.201-0.334-0.06-0.68-0.06-0.68c-0.587-0.736-3.187,2.383-3.547,2.822c-0.06-0.074-0.124-0.149-0.19-0.224
					c1.187-1.422,3.441-4.135,3.641-4.473c0.273-0.46-0.047-0.838-0.047-0.838c-0.711-0.788-4.103,3.529-4.655,4.244
					c-0.124-0.113-0.25-0.226-0.378-0.337c1.168-1.611,3.686-5.098,3.899-5.503c0.278-0.529-0.07-0.882-0.07-0.882
					c-0.84-0.795-4.901,5.315-4.901,5.315c-0.027,0.042-0.051,0.083-0.074,0.123c-0.146-0.116-0.288-0.225-0.423-0.328
					c0.904-1.562,2.758-4.78,2.902-5.156c0.191-0.5-0.189-0.818-0.189-0.818c-0.909-0.715-3.924,5.085-3.924,5.085l-2.745,2.699
					c-0.266-0.176-0.434-0.581-0.341-1.391c0.179-1.572-0.119-1.681-0.119-1.681c-1.427-0.417-1.471,2.245-1.95,4.551
					c-0.359,1.73,0.288,3.242,0.634,3.89c0.098,0.228,0.197,0.336,0.197,0.336l-0.842,2.787l4.218,2.623L447.447,322.133z"/>
				<g style="opacity:0.48;">
					<path style="fill:#101A46;" d="M445.104,319.914c0.078,0.028,0.166-0.01,0.199-0.088c0.812-1.897,0.178-3.435-0.519-4.408
						c1.654,1.141,3.482,2.366,3.505,2.382c0.074,0.05,0.172,0.029,0.221-0.044c0.049-0.073,0.029-0.172-0.044-0.221
						c-0.03-0.02-2.982-1.999-4.776-3.268l-0.185,0.259c0.116,0.084,2.824,2.094,1.505,5.174c-0.035,0.081,0.003,0.174,0.084,0.209
						C445.097,319.911,445.1,319.913,445.104,319.914z"/>
				</g>
			</g>
			<path style="fill:#223147;" d="M376.942,363.068c0.681,0.285,1.355,0.586,2.042,0.858c2.635,1.046,5.304,2.001,8.011,2.844
				c1.324,0.412,2.662,0.769,3.992,1.159c-4.221-1.235-0.466-0.155,0.496,0.041c5.714,1.164,11.526,1.788,17.355,1.915
				c0.627,0.014,1.255,0.009,1.882,0.011c-0.876-0.032,3.046-0.134,3.429-0.16c0.459-0.031,0.916-0.084,1.374-0.121
				c0.054-0.186,0.058-0.358-0.001-0.511c-0.98-2.516,0.222-17.066,0.222-17.066c7.073-29.541,0.849-30.235,0.849-30.235
				l-8.132-3.631c-2.491,0.833-5.516,0.142-7.152,0.143c-1.596-0.362-3.393-0.554-5.639-1.915l-10.038,1.952
				c0,0-6.223-0.694-5.828,29.68C379.804,348.031,378.317,358.609,376.942,363.068z"/>
			<path style="opacity:0.18;fill:#63CFE8;" d="M417.341,344.74c0.58-2.954,0.999-5.54,1.281-7.784
				c-6.806,0.197-13.617,0.457-20.424,0.211c-6.078-0.22-12.051-1.816-18.07-2.232c-0.152,2.082-0.259,4.428-0.309,7.061
				C392.114,345.474,404.512,346.396,417.341,344.74z"/>
			<path style="fill:#223147;" d="M416.594,321.802c0,0,5.994,0.89,7.689,8.235c1.695,7.346,7.911,25.427,5.651,27.122
				c-2.26,1.695-10.736,2.825-14.126-19.777C415.807,337.383,410.6,324.867,416.594,321.802z"/>
			<path style="fill:#223147;" d="M429.934,357.159c0,0,11.866-15.821,16.386-32.208l-5.085-3.955l-18.081,23.167
				C423.153,344.163,423.718,357.725,429.934,357.159z"/>
			<path style="fill:#223147;" d="M391.597,317.249l0.98-3.688l19.351,0.534l1.197,6.071
				C413.125,320.166,397.589,332.679,391.597,317.249z"/>
			<g style="opacity:0.32;">
				<path style="fill:#63CFE8;" d="M412.052,317.322c-0.96,0.433-1.945,0.759-2.939,1.005l-0.605-4.041l-0.511,0.077l0.612,4.086
					c-2.125,0.464-4.277,0.551-6.303,0.427v-4.782h-0.517v4.747c-2.09-0.165-4.023-0.546-5.629-0.958l0.628-3.978l-0.511-0.081
					l-0.619,3.926c-2.373-0.646-3.912-1.319-3.954-1.338l-0.211,0.473c0.082,0.036,5.826,2.558,12.447,2.558
					c1.554,0,3.157-0.147,4.746-0.49l0.001,0.006l0.511-0.077l-0.006-0.039c1.039-0.254,2.07-0.598,3.074-1.051L412.052,317.322z"/>
				<path style="fill:#63CFE8;" d="M416.036,333.169c0,0.443,0.011,10.889,0.953,12.538l0.448-0.257
					c-0.726-1.27-0.885-9.296-0.885-12.281H416.036z"/>
				<path style="fill:#63CFE8;" d="M426.382,339.091c-0.066,0.323-1.615,7.92-0.673,10.04l0.473-0.21
					c-0.875-1.969,0.691-9.648,0.707-9.725L426.382,339.091z"/>
				<path style="fill:#63CFE8;" d="M380.417,326.935c-0.038,0.33-0.921,8.097-0.687,9.271l0.507-0.101
					c-0.182-0.91,0.439-6.886,0.693-9.112L380.417,326.935z"/>
				
					<rect x="442.463" y="321.54" transform="matrix(0.5893 -0.808 0.808 0.5893 -80.9304 491.2896)" style="fill:#63CFE8;" width="0.518" height="7.401"/>
			</g>
		</g>
		<g style="opacity:0.43;">
			<path style="fill:#D5D8DB;" d="M392.121,373.605c-1.112,0-2.73-0.423-3.098-0.523l-0.544-0.148l2.494-6.734
				c0.099-0.267,0.396-0.406,0.664-0.305c0.268,0.099,0.404,0.397,0.305,0.664l-2.098,5.664c0.935,0.221,2.162,0.436,2.637,0.318
				c0.274-0.068,0.556,0.099,0.627,0.377c0.069,0.277-0.099,0.557-0.377,0.627C392.56,373.587,392.352,373.605,392.121,373.605z"/>
		</g>
		<path style="fill:#155897;" d="M375.527,364.263c0,0-36.566,4.762-36.566,12.108c0,0-1.695,6.781,5.086,9.041
			c6.78,2.26,44.074-3.955,44.074-3.955S384.971,360.066,375.527,364.263z"/>
		<g style="opacity:0.43;">
			<path style="fill:#D5D8DB;" d="M382.972,379.647c-0.206,0-0.402-0.124-0.482-0.328c-1.129-2.887-4.647-10.653-7.32-11.899
				c-0.259-0.12-0.372-0.428-0.25-0.687c0.121-0.26,0.431-0.371,0.687-0.25c3.594,1.676,7.676,12.02,7.847,12.459
				c0.104,0.267-0.027,0.567-0.293,0.671C383.098,379.636,383.034,379.647,382.972,379.647z"/>
		</g>
		<g>
			<path style="fill:#155897;" d="M338.961,376.371c0,0-6.215,6.781,16.386,58.765l9.041-0.565c0,0-1.13-54.245-11.866-59.33
				C341.786,370.156,339.526,374.111,338.961,376.371z"/>
			<path style="fill:#F9B88C;" d="M364.388,434.571c0,0,2.825,9.041-0.565,10.171c-3.39,1.13-24.297,1.695-24.297,1.695
				s-1.695-5.65,5.085-5.65c6.781,0,10.736-5.651,10.736-5.651L364.388,434.571z"/>
			<g style="opacity:0.59;">
				<path style="fill:#D5D8DB;" d="M358.769,385.466c-0.113,0-0.227-0.037-0.323-0.113c-2.237-1.79-7.26-3.629-7.31-3.647
					c-0.268-0.098-0.407-0.394-0.309-0.663c0.097-0.268,0.392-0.406,0.663-0.309c0.213,0.077,5.233,1.915,7.603,3.811
					c0.223,0.179,0.259,0.504,0.081,0.727C359.071,385.399,358.921,385.466,358.769,385.466z"/>
			</g>
		</g>
	</g>
	<g>
		<g>
			<path style="opacity:0.18;fill:#63CFE8;" d="M408.771,231.034c23.292-3.546,41.139-23.66,41.139-47.943
				c0-14.995-6.808-28.397-17.498-37.293c4.531-7.376,7.148-16.055,7.148-25.347c0-26.785-21.714-48.499-48.499-48.499
				c-26.489,0-48.004,21.24-48.476,47.616c-3.017-0.489-6.11-0.754-9.265-0.754c-31.737,0-57.465,25.728-57.465,57.465
				c0,25.646,16.804,47.361,40,54.754H408.771z"/>
			<g>
				<g>
					<path style="opacity:0.24;fill:#155897;" d="M455.059,242.515h-9.643c0.885-0.586,1.473-1.589,1.473-2.723
						c0-0.839-0.329-1.599-0.853-2.179h6.3c1.797,0,3.268-1.471,3.268-3.268c0-1.798-1.471-3.268-3.268-3.268H303.635
						c-1.797,0-3.268,1.471-3.268,3.268c0,0.839,0.329,1.599,0.853,2.179h-6.3c-1.797,0-3.268,1.471-3.268,3.268
						s1.471,3.268,3.268,3.268h9.643c-0.885,0.586-1.473,1.589-1.473,2.724c0,1.798,1.471,3.268,3.268,3.268h148.701
						c1.797,0,3.268-1.471,3.268-3.268S456.856,242.515,455.059,242.515z"/>
				</g>
				<g style="opacity:0.34;">
					<path style="fill:#223147;" d="M446.035,236.653H301.22c-0.071,0-0.129-0.058-0.129-0.129s0.058-0.129,0.129-0.129h144.815
						c0.071,0,0.129,0.058,0.129,0.129S446.107,236.653,446.035,236.653z"/>
				</g>
				<g style="opacity:0.34;">
					<path style="fill:#223147;" d="M445.416,242.644H304.563c-0.071,0-0.129-0.058-0.129-0.129c0-0.071,0.058-0.129,0.129-0.129
						h140.853c0.071,0,0.129,0.058,0.129,0.129C445.545,242.586,445.487,242.644,445.416,242.644z"/>
				</g>
			</g>
		</g>
		<g>
			<rect x="363.07" y="133.637" style="fill:#223147;" width="18.261" height="19.439"/>
			<rect x="335.679" y="100.061" style="fill:#223147;" width="73.043" height="43.59"/>
			<rect x="335.679" y="100.061" style="opacity:0.47;fill:#63CFE8;" width="73.043" height="35.327"/>
			<g>
				<rect x="346.908" y="104.474" style="fill:#FFFFFF;" width="39.66" height="28.451"/>
				<rect x="346.908" y="104.474" style="fill:#FD6C6B;" width="39.66" height="3.021"/>
				
					<ellipse transform="matrix(0.9246 -0.3809 0.3809 0.9246 -18.4594 149.8771)" style="fill:#00A58C;" cx="369.405" cy="121.573" rx="7.61" ry="7.61"/>
				<polygon style="fill:#F49231;" points="361.474,111.371 355.372,121.94 367.576,121.94 				"/>
			</g>
		</g>
		<g>
			<path style="fill:#F49231;" d="M300.17,237.241l0.119,0.019c0.959,0.148,1.865-0.515,2.013-1.473l12.241-79.068
				c0.148-0.959-0.515-1.865-1.473-2.013l-0.119-0.019c-0.959-0.148-1.865,0.515-2.013,1.473l-12.241,79.068
				C298.549,236.187,299.211,237.093,300.17,237.241z"/>
			<path style="fill:#F49231;" d="M340.776,239.094l0.119-0.017c0.96-0.138,1.633-1.036,1.495-1.997l-11.38-79.196
				c-0.138-0.96-1.036-1.633-1.997-1.495l-0.119,0.017c-0.96,0.138-1.633,1.036-1.495,1.997l11.38,79.196
				C338.917,238.559,339.815,239.232,340.776,239.094z"/>
			<path style="fill:#F49231;" d="M446.142,236.815l0.118-0.025c0.948-0.205,1.557-1.148,1.352-2.096l-16.877-78.21
				c-0.205-0.948-1.148-1.557-2.096-1.352l-0.118,0.025c-0.948,0.205-1.557,1.148-1.352,2.096l16.877,78.21
				C444.25,236.411,445.194,237.02,446.142,236.815z"/>
			<rect x="309.27" y="153.665" style="fill:#F49231;" width="126.647" height="5.891"/>
		</g>
		<g>
			<g>
				<path style="fill:#FFFFFF;" d="M334.245,138.7c0-1.037-0.848-1.885-1.886-1.885h-14.007c-1.037,0-1.886,0.848-1.886,1.885
					c0,1.012,0.812,1.831,1.814,1.871c-0.798,1.253-1.275,2.729-1.275,4.324c0,4.463,3.618,8.081,8.081,8.081
					c4.463,0,8.081-3.618,8.081-8.081c0-1.589-0.475-3.06-1.267-4.31h0.459C333.396,140.585,334.245,139.737,334.245,138.7z"/>
				<path style="opacity:0.11;fill:#155897;" d="M325.721,150.169c-3.943,0.117-6.833-1.489-8.607-4.009
					c0.608,3.861,3.941,6.816,7.972,6.816c3.461,0,6.405-2.179,7.556-5.237C330.693,149.194,328.294,150.093,325.721,150.169z"/>
				<path style="fill:#00A58C;" d="M323.47,136.814c0,0-5.387-5.118-5.387-9.697c0,0,0-3.232,3.502-2.155s6.465,8.081,6.734,11.583
					L323.47,136.814z"/>
				<path style="fill:#00A58C;" d="M324.709,127.815c0,0,1.36-4.988,4.166-6.498c0,0,1.981-1.066,2.475,1.435
					c0.494,2.501-2.82,6.625-4.877,7.945L324.709,127.815z"/>
			</g>
			<g>
				<path style="fill:#223147;" d="M321.229,127.256c-0.286,0-0.517-0.231-0.517-0.517v-3.682c0-0.286,0.231-0.517,0.517-0.517
					s0.517,0.231,0.517,0.517v3.682C321.746,127.025,321.514,127.256,321.229,127.256z"/>
			</g>
			<g>
				<path style="fill:#223147;" d="M320.001,129.71c-0.062,0-0.125-0.011-0.186-0.034l-3.191-1.227
					c-0.266-0.102-0.4-0.402-0.297-0.669c0.102-0.266,0.401-0.398,0.669-0.297l3.191,1.227c0.266,0.102,0.399,0.402,0.297,0.669
					C320.405,129.584,320.209,129.71,320.001,129.71z"/>
			</g>
			<g>
				<path style="fill:#223147;" d="M322.701,133.637h-4.909c-0.286,0-0.517-0.231-0.517-0.517c0-0.286,0.231-0.517,0.517-0.517
					h4.909c0.286,0,0.517,0.231,0.517,0.517C323.218,133.406,322.987,133.637,322.701,133.637z"/>
			</g>
			<g>
				<path style="fill:#223147;" d="M326.873,126.519c-0.262,0-0.486-0.197-0.514-0.463l-0.491-4.663
					c-0.03-0.284,0.176-0.538,0.46-0.568c0.281-0.035,0.538,0.176,0.568,0.46l0.491,4.663c0.03,0.284-0.176,0.538-0.46,0.568
					C326.91,126.518,326.892,126.519,326.873,126.519z"/>
			</g>
			<g>
				<path style="fill:#223147;" d="M332.275,125.537c-0.016,0-0.031,0-0.047-0.002l-2.7-0.245c-0.284-0.026-0.494-0.277-0.468-0.562
					c0.026-0.284,0.277-0.496,0.562-0.468l2.7,0.245c0.284,0.026,0.494,0.277,0.468,0.562
					C332.764,125.335,332.539,125.537,332.275,125.537z"/>
			</g>
			<g>
				<path style="fill:#223147;" d="M326.138,134.374c-0.132,0-0.265-0.051-0.366-0.152c-0.202-0.202-0.202-0.529,0-0.731
					l3.191-3.191c0.202-0.202,0.529-0.202,0.731,0s0.202,0.529,0,0.731l-3.191,3.191
					C326.402,134.324,326.27,134.374,326.138,134.374z"/>
			</g>
		</g>
		<g>
			<g>
				<path style="fill:#82450F;" d="M406.813,112.723l-0.465,9.988c0,0,8.275,5.994,14.388-1.138l-1.481-9.477L406.813,112.723z"/>
				<path style="opacity:0.27;fill:#131C26;" d="M417.43,112.187l-10.617,0.536l-0.407,8.747
					C411.113,119.734,414.89,116.408,417.43,112.187z"/>
				<path style="fill:#82450F;" d="M409.71,117.897l-0.878,0.027c-7.063,0.221-13.022-5.378-13.242-12.44l-0.436-13.952
					c-0.22-7.063,5.378-13.022,12.44-13.242l0.879-0.027c7.063-0.221,13.022,5.378,13.242,12.44l0.436,13.951
					C422.371,111.718,416.773,117.677,409.71,117.897z"/>
				<path style="fill:#82450F;" d="M410.059,99.211c0,3.572-1.448,6.468-3.234,6.468c-1.786,0-3.234-2.896-3.234-6.468
					c0-3.572,1.448-6.468,3.234-6.468C408.611,92.743,410.059,95.639,410.059,99.211z"/>
				<path style="fill:#223147;" d="M429.375,99.163c0.886-0.976,1.44-2.259,1.44-3.681c0-2.57-1.771-4.711-4.154-5.313
					c0.846-1.253,1.34-2.764,1.34-4.389c0-4.34-3.518-7.858-7.858-7.858c-0.575,0-1.134,0.065-1.674,0.183
					c-0.284-2.77-2.597-4.938-5.441-4.938c-2.42,0-4.451,1.573-5.186,3.745c-0.61-2.372-2.744-4.133-5.306-4.133
					c-3.036,0-5.498,2.461-5.498,5.498c0,0.929,0.252,1.79,0.659,2.557c-0.476-0.134-0.967-0.229-1.486-0.229
					c-3.036,0-5.498,2.461-5.498,5.498c0,3.036,2.462,5.498,5.498,5.498c1.72,0,3.236-0.806,4.244-2.042
					c0.228,0.37,0.502,0.709,0.807,1.014c-0.105,0.266-0.167,0.555-0.167,0.858c0,0.862,0.469,1.607,1.162,2.016
					c-0.662,0.132-1.162,0.716-1.162,1.417c0,0.798,0.647,1.445,1.445,1.445c0.798,0,1.445-0.647,1.445-1.445
					c0-0.436-0.197-0.823-0.503-1.088c1.026-0.017,1.883-0.693,2.185-1.622c0.173-0.018,0.344-0.044,0.513-0.077
					c0.272,1.714,1.332,3.148,2.801,3.947c-0.16,0.624-0.254,1.275-0.254,1.949c0,2.643,1.309,4.976,3.31,6.4
					c-1.25,1.392-2.016,3.225-2.016,5.243c0,4.34,3.518,7.858,7.858,7.858c4.34,0,7.858-3.518,7.858-7.858
					c0-0.107-0.012-0.211-0.016-0.317c0.291,0.048,0.585,0.09,0.89,0.09c3.036,0,5.498-2.461,5.498-5.498
					C432.109,101.867,431.003,100.118,429.375,99.163z"/>
				<path style="fill:#82450F;" d="M395.696,99.234l-2.884,5.24c0,0,1.37,1.178,3.389,0.769
					C398.22,104.834,396.333,100.544,395.696,99.234z"/>
				<g>
					<path style="fill:#223147;" d="M397.954,110.369c-0.843,0-1.541-0.299-1.583-0.318l0.413-0.948
						c0.012,0.005,1.139,0.482,1.987,0.06c0.443-0.22,0.753-0.669,0.92-1.337l1.003,0.251c-0.244,0.979-0.739,1.657-1.471,2.016
						C398.804,110.299,398.362,110.369,397.954,110.369z"/>
				</g>
				<g>
					<path style="fill:#223147;" d="M397.755,94.759c-0.525-0.92-2.339-0.653-2.358-0.65l-0.169-1.02
						c0.103-0.018,2.534-0.402,3.424,1.157L397.755,94.759z"/>
				</g>
				<path style="fill:#223147;" d="M397.83,97.967c-0.035,0.885-0.423,1.588-0.865,1.57c-0.442-0.018-0.772-0.749-0.737-1.634
					c0.035-0.885,0.423-1.588,0.865-1.57C397.536,96.351,397.866,97.083,397.83,97.967z"/>
				<path style="fill:#82450F;" d="M414.592,99.499c0,2.769-1.489,5.013-3.327,5.013c-1.837,0-3.327-2.244-3.327-5.013
					c0-2.769,1.49-5.013,3.327-5.013C413.102,94.487,414.592,96.731,414.592,99.499z"/>
				<path style="opacity:0.27;fill:#131C26;" d="M411.698,100.044c0,1.608-0.695,2.911-1.552,2.911s-1.552-1.303-1.552-2.911
					c0-1.608,0.695-2.911,1.552-2.911S411.698,98.437,411.698,100.044z"/>
			</g>
			<path style="fill:#F7F8F9;" d="M377.836,153.583h-29.003c-0.769,0-1.398-0.629-1.398-1.398v-0.096
				c0-0.769,0.629-1.398,1.398-1.398h29.003c0.769,0,1.397,0.629,1.397,1.398v0.096
				C379.233,152.954,378.604,153.583,377.836,153.583z"/>
			<g>
				<path style="fill:#155897;" d="M434.107,172.732c0,0,5.782,14.538-16.767,16.84c0,0-20.656,0.637-21.004-18.33
					C396.336,171.242,427.958,165.553,434.107,172.732z"/>
				<g>
					<path style="fill:#155897;" d="M387.128,183.624c0,0-5.235,5.711,13.802,49.496l7.615-0.476c0,0-0.952-45.688-9.994-49.972
						C389.507,178.388,387.604,181.72,387.128,183.624z"/>
				</g>
				<g>
					<g>
						<path style="fill:#223147;" d="M408.542,231.727c0,0,2.38,7.615-0.476,8.566c-2.856,0.952-20.465,1.428-20.465,1.428
							s-1.428-4.759,4.283-4.759s9.043-4.759,9.043-4.759L408.542,231.727z"/>
						<path style="fill:#FFFFFF;" d="M394.349,236.648c-0.765,0.192-1.582,0.315-2.463,0.315c-5.711,0-4.283,4.759-4.283,4.759
							s3.273-0.089,7.224-0.266C394.799,240.015,394.824,238.102,394.349,236.648z"/>
						<path style="fill:#FFFFFF;" d="M387.489,239.879c-0.139,0.985,0.113,1.843,0.113,1.843s17.609-0.476,20.465-1.428
							c0.253-0.084,0.452-0.236,0.628-0.415H387.489z"/>
						<path style="fill:#FFFFFF;" d="M405.128,233.355c0.689,0,1.247,0.558,1.247,1.247s-0.558,1.247-1.247,1.247
							s-1.247-0.558-1.247-1.247S404.439,233.355,405.128,233.355z"/>
					</g>
					<path style="fill:#155897;" d="M399.842,175.939c0,0-30.798,4.011-30.798,10.198c0,0-1.428,5.711,4.283,7.615
						c5.711,1.904,37.122-3.331,37.122-3.331S407.796,172.404,399.842,175.939z"/>
					<path style="fill:#155897;" d="M369.044,186.137c0,0-5.235,5.711,13.802,49.496l7.615-0.476c0,0-0.952-45.688-9.994-49.971
						C371.424,180.902,369.52,184.233,369.044,186.137z"/>
					<g>
						<path style="fill:#223147;" d="M390.46,235.157c0,0,2.38,7.615-0.476,8.567c-2.855,0.952-20.464,1.428-20.464,1.428
							s-1.428-4.759,4.283-4.759c5.711,0,9.042-4.759,9.042-4.759L390.46,235.157z"/>
						<path style="fill:#FFFFFF;" d="M376.267,240.077c-0.765,0.192-1.582,0.315-2.463,0.315c-5.711,0-4.283,4.759-4.283,4.759
							s3.273-0.089,7.224-0.266C376.717,243.444,376.741,241.531,376.267,240.077z"/>
						<path style="fill:#FFFFFF;" d="M369.407,243.308c-0.14,0.985,0.113,1.843,0.113,1.843s17.609-0.476,20.465-1.428
							c0.253-0.084,0.452-0.236,0.628-0.415H369.407z"/>
						<path style="fill:#FFFFFF;" d="M387.046,236.784c0.689,0,1.247,0.558,1.247,1.247s-0.558,1.247-1.247,1.247
							c-0.689,0-1.247-0.558-1.247-1.247S386.357,236.784,387.046,236.784z"/>
					</g>
				</g>
				<g>
					<path style="fill:#FD6C6B;" d="M421.679,120.88c0,0,6.03-0.595,9.462,6.117c3.431,6.712,13.859,22.738,12.079,24.932
						c-1.78,2.194-9.726,5.352-18.513-15.745C424.707,136.184,416.611,125.311,421.679,120.88z"/>
					<path style="fill:#FD6C6B;" d="M402.514,124.636c0,0-6.019-0.697-9.563,5.957c-3.544,6.654-14.24,22.502-12.497,24.726
						c1.743,2.224,9.635,5.515,18.775-15.432C399.23,139.887,407.507,129.152,402.514,124.636z"/>
					<path style="fill:#FD6C6B;" d="M386.813,156.42c0,0-16.938,1.123-30.818-3.311l-0.439-5.519l29.894-1.421
						C385.45,146.169,390.148,152.208,386.813,156.42z"/>
					<path style="fill:#FD6C6B;" d="M433.052,171.167c0.025-0.192,0.005-0.363-0.069-0.506c-0.033-0.063-0.065-0.139-0.097-0.219
						l-1.351-28.248c0.082-4.972-0.15-8.622-0.539-11.281l-0.078-1.628c-2.622-3.44-5.218-7-9.763-8.905
						c-0.161-0.067-1.297,0.974-1.452,0.896c-2.128,1.087-4.866,0.848-6.316,1.072c-1.493-0.137-5.328-0.573-7.543-1.609
						l-6.651,3.826c0,0-4.4,0.141-2.539,20.39l-0.07,0.504c0,0,0.517,24.304-1.551,25.855c-2.068,1.551,6.205,15.513,30.509,11.376
						l7.757-3.62l-0.376-7.871C432.966,171.189,433.009,171.177,433.052,171.167z"/>
					<path style="opacity:0.18;fill:#223147;" d="M432.923,171.2c0.043-0.011,0.086-0.022,0.129-0.033
						c0.025-0.192,0.005-0.363-0.069-0.506c-0.033-0.063-0.065-0.139-0.097-0.219l-1.351-28.248
						c0.082-4.972-0.15-8.622-0.539-11.281l-0.078-1.628c-0.624-0.819-1.249-1.644-1.896-2.453
						c-0.046,4.335-0.868,8.856-1.661,12.577c-3.024,14.186-14.682,37.815-32.024,34.601c2.323,4.351,11.525,11.859,30.205,8.68
						l7.757-3.62L432.923,171.2z"/>
					<path style="fill:#82450F;" d="M355.906,148.906c0,0-10.687-1.379-12.41,4.482l12.499-0.279L355.906,148.906z"/>
					<g style="opacity:0.56;">
						<path style="fill:#223147;" d="M384.618,151.93l-0.887-0.532c0.743-1.238-0.028-4.082-0.387-5.073l0.971-0.354
							C384.465,146.384,385.746,150.05,384.618,151.93z"/>
					</g>
					<g style="opacity:0.56;">
						<path style="fill:#223147;" d="M397.022,145.734l-0.876-0.551c0.075-0.12,7.52-12.011,7.851-16.654l1.031,0.074
							C404.68,133.503,397.335,145.237,397.022,145.734z"/>
					</g>
					<g style="opacity:0.56;">
						<path style="fill:#223147;" d="M413.65,124.607c-4.914,0-9.703-1.978-10.026-2.113l0.401-0.953
							c0.122,0.051,12.319,5.083,17.254-0.987l0.802,0.652C419.968,123.803,416.784,124.607,413.65,124.607z"/>
					</g>
					<g style="opacity:0.56;">
						<path style="fill:#223147;" d="M415.672,181.659c-6.944,0-11.994-2.326-15.152-4.443c-3.963-2.657-5.841-5.5-5.919-5.62
							l0.866-0.565c0.072,0.112,7.45,11.084,23.473,9.421l0.107,1.028C417.876,181.603,416.751,181.659,415.672,181.659z"/>
					</g>
				</g>
				<g style="opacity:0.4;">
					<path style="fill:#223147;" d="M386.096,234.906c-0.037-0.113-3.746-11.431-6.987-22.772
						c-6.678-23.374-4.93-24.073-4.09-24.409c3.418-1.367,23.945-8.554,24.152-8.627l0.341,0.977
						c-0.207,0.072-20.712,7.251-24.11,8.61c-1.653,1.408,4.634,24.444,11.676,45.898L386.096,234.906z"/>
				</g>
				<g style="opacity:0.4;">
					
						<rect x="382.968" y="191.491" transform="matrix(0.4471 -0.8945 0.8945 0.4471 39.3504 449.7297)" style="fill:#223147;" width="1.034" height="3.083"/>
				</g>
			</g>
		</g>
		<g>
			<rect x="415.815" y="190.529" style="fill:#223147;" width="1.091" height="50.375"/>
			<ellipse style="fill:#223147;" cx="414.481" cy="190.828" rx="26.793" ry="5.422"/>
			<ellipse style="fill:#223147;" cx="433.619" cy="161.803" rx="19.776" ry="32.215"/>
			<path style="fill:#223147;" d="M434.32,243.776h-36.488c-1.018,0-1.85-0.833-1.85-1.85v-0.127c0-1.018,0.833-1.85,1.85-1.85
				h36.488c1.018,0,1.85,0.833,1.85,1.85v0.127C436.171,242.943,435.338,243.776,434.32,243.776z"/>
		</g>
	</g>
</g>
</svg>
